<svg id="svg" version="1.1" xmlns="http://www.w3.org/2000/svg" xmlns:xlink="http://www.w3.org/1999/xlink" width="400" height="162.6227208976157" viewBox="0, 0, 400,162.6227208976157"><g id="svgg"><path id="path0" d="M70.417 40.683 C 68.379 40.790,65.817 41.132,64.500 41.470 C 64.179 41.553,63.504 41.712,63.000 41.823 C 61.659 42.119,60.647 42.443,58.417 43.291 C 57.725 43.554,52.669 46.018,52.083 46.378 C 51.900 46.490,51.511 46.751,51.219 46.958 C 50.928 47.164,50.642 47.333,50.585 47.333 C 50.443 47.333,47.910 49.250,47.077 49.987 C 46.707 50.315,45.854 51.070,45.181 51.666 C 43.310 53.322,39.486 57.958,38.499 59.767 C 38.304 60.124,37.990 60.679,37.801 61.000 C 37.145 62.111,35.703 65.089,35.258 66.250 C 35.012 66.892,34.709 67.679,34.583 68.000 C 34.309 68.703,33.931 69.978,33.694 71.000 C 33.598 71.412,33.407 72.237,33.269 72.833 C 31.994 78.347,32.144 85.010,33.693 91.667 C 35.590 99.818,41.450 108.420,48.917 114.013 C 50.286 115.038,53.851 117.333,54.075 117.333 C 54.108 117.333,54.911 117.703,55.859 118.154 C 58.165 119.251,62.641 120.769,64.500 121.083 C 64.821 121.137,65.346 121.250,65.667 121.334 C 67.910 121.919,73.967 122.171,77.333 121.819 C 80.697 121.466,86.102 120.097,88.750 118.927 C 89.868 118.433,93.450 116.632,93.917 116.328 C 94.192 116.150,94.529 115.951,94.667 115.886 C 94.996 115.732,98.134 113.500,98.746 112.986 C 102.512 109.817,106.626 105.162,107.720 102.833 C 107.784 102.696,107.982 102.358,108.158 102.083 C 108.335 101.808,108.831 100.908,109.261 100.083 C 109.691 99.258,110.098 98.508,110.167 98.417 C 110.502 97.969,111.634 94.839,112.427 92.167 C 114.238 86.061,114.313 79.239,112.656 71.250 C 112.134 68.734,109.963 63.339,108.665 61.333 C 108.576 61.196,108.359 60.821,108.183 60.500 C 105.975 56.481,98.820 48.768,96.417 47.816 C 96.325 47.779,95.725 47.403,95.083 46.979 C 88.070 42.347,79.640 40.195,70.417 40.683 M71.750 52.380 C 74.851 53.424,78.469 56.169,80.310 58.875 C 80.607 59.310,80.939 59.664,81.050 59.662 C 81.160 59.659,81.119 59.580,80.958 59.487 C 80.798 59.393,80.667 59.238,80.667 59.142 C 80.667 59.045,81.028 59.330,81.470 59.775 C 82.345 60.657,83.222 61.333,83.489 61.333 C 83.583 61.333,83.785 61.525,83.939 61.760 C 84.096 62.000,84.264 62.112,84.323 62.016 C 84.381 61.923,84.522 62.462,84.637 63.215 C 84.767 64.070,85.044 64.990,85.376 65.667 C 85.668 66.262,85.890 66.806,85.870 66.875 C 85.850 66.944,85.898 66.981,85.977 66.958 C 86.056 66.935,86.632 67.479,87.257 68.167 L 88.394 69.417 87.187 68.250 C 86.145 67.244,85.995 67.147,86.091 67.544 C 86.154 67.799,86.125 68.099,86.027 68.217 C 85.930 68.334,85.805 68.690,85.749 69.007 C 85.694 69.324,85.577 69.655,85.491 69.742 C 85.261 69.972,85.298 70.207,85.542 70.066 C 85.656 70.001,85.700 70.002,85.639 70.071 C 85.578 70.139,85.465 70.198,85.389 70.203 C 85.114 70.220,84.288 71.988,84.104 72.954 C 84.083 73.065,84.013 73.209,83.949 73.273 C 83.886 73.337,83.833 73.568,83.833 73.788 C 83.833 74.007,83.764 74.143,83.679 74.091 C 83.594 74.038,83.472 74.165,83.409 74.373 C 83.346 74.580,83.172 74.894,83.022 75.070 C 82.872 75.246,82.837 75.340,82.943 75.278 C 83.049 75.217,82.927 75.575,82.671 76.075 C 82.415 76.575,82.247 77.025,82.297 77.075 C 82.348 77.126,82.306 77.167,82.206 77.167 C 82.026 77.167,81.735 77.795,81.800 78.042 C 81.818 78.110,81.746 78.167,81.639 78.167 C 81.532 78.167,81.486 78.209,81.538 78.260 C 81.589 78.311,81.471 78.529,81.274 78.744 C 81.077 78.959,80.734 79.366,80.511 79.648 C 80.287 79.930,80.069 80.125,80.025 80.081 C 79.982 80.038,79.865 80.142,79.765 80.312 C 79.665 80.483,79.456 80.801,79.301 81.020 C 79.146 81.238,78.986 81.604,78.944 81.833 C 78.903 82.063,78.791 82.550,78.695 82.917 C 78.496 83.675,78.676 84.967,79.010 85.173 C 79.154 85.262,79.064 85.329,78.737 85.378 C 78.396 85.428,78.484 85.458,79.031 85.475 C 80.880 85.534,82.016 84.224,82.346 81.652 C 82.622 79.506,83.162 79.252,85.066 80.370 C 86.326 81.110,87.586 82.241,88.512 83.464 C 88.964 84.061,89.333 84.459,89.333 84.348 C 89.333 84.237,89.616 84.473,89.961 84.872 C 90.307 85.271,90.756 85.776,90.959 85.995 C 91.163 86.213,91.373 86.529,91.426 86.696 C 91.479 86.863,91.617 87.000,91.733 87.000 C 91.849 87.000,92.040 87.179,92.157 87.398 C 92.373 87.801,93.111 88.261,93.417 88.182 C 93.508 88.158,93.530 88.192,93.465 88.257 C 93.400 88.322,93.474 88.610,93.631 88.896 L 93.915 89.417 94.015 88.583 C 94.082 88.017,94.122 88.391,94.138 89.750 C 94.193 94.416,93.169 95.997,89.605 96.749 C 89.151 96.845,89.142 96.863,89.438 97.086 C 89.648 97.245,89.676 97.324,89.524 97.328 C 89.399 97.331,89.338 97.438,89.387 97.565 C 89.435 97.692,89.328 97.955,89.148 98.148 C 88.932 98.380,88.894 98.502,89.035 98.505 C 89.168 98.509,89.133 98.599,88.941 98.744 C 88.772 98.873,88.622 99.171,88.608 99.406 C 88.594 99.641,88.527 99.833,88.458 99.833 C 88.390 99.833,88.333 99.946,88.333 100.083 C 88.333 100.221,88.244 100.333,88.135 100.333 C 88.026 100.333,88.082 100.447,88.260 100.586 C 88.476 100.755,88.502 100.824,88.337 100.794 C 88.189 100.768,88.067 100.907,88.032 101.143 C 87.989 101.423,88.032 101.500,88.178 101.409 C 88.325 101.319,88.342 101.349,88.237 101.516 C 88.082 101.760,88.055 101.849,88.021 102.232 C 88.009 102.359,87.823 102.508,87.606 102.563 C 87.292 102.642,87.228 102.746,87.292 103.079 C 87.345 103.357,87.285 103.529,87.112 103.595 C 86.916 103.671,86.888 103.790,86.999 104.081 C 87.119 104.396,87.094 104.459,86.865 104.422 C 86.710 104.397,86.508 104.431,86.417 104.498 C 86.325 104.566,86.025 104.681,85.750 104.754 L 85.250 104.887 85.750 105.007 C 86.083 105.087,85.666 105.146,84.500 105.182 C 83.222 105.222,83.694 105.261,86.250 105.327 C 97.410 105.614,100.681 104.014,101.971 97.639 C 102.239 96.317,102.297 96.176,102.358 96.697 C 102.398 97.034,102.381 97.279,102.320 97.242 C 102.189 97.161,101.972 98.361,102.095 98.484 C 102.142 98.531,102.223 98.403,102.276 98.201 C 102.329 97.999,102.443 97.833,102.529 97.833 C 102.616 97.833,102.640 97.908,102.583 98.000 C 102.527 98.092,102.574 98.167,102.689 98.167 C 102.807 98.167,102.757 98.281,102.574 98.429 C 102.396 98.573,102.344 98.644,102.458 98.586 C 102.573 98.528,102.667 98.560,102.667 98.657 C 102.667 98.754,102.587 98.833,102.490 98.833 C 102.393 98.833,102.356 98.902,102.408 98.986 C 102.460 99.070,102.424 99.344,102.329 99.594 C 102.176 99.997,102.186 100.025,102.415 99.835 C 102.717 99.584,102.617 99.976,102.220 100.597 C 102.098 100.787,102.047 100.992,102.107 101.051 C 102.166 101.110,102.092 101.206,101.941 101.264 C 101.791 101.321,101.710 101.436,101.761 101.519 C 101.813 101.601,101.702 101.883,101.515 102.145 C 101.329 102.407,101.193 102.650,101.213 102.685 C 101.233 102.721,101.223 102.736,101.191 102.719 C 101.099 102.670,100.333 103.531,100.333 103.683 C 100.333 103.914,99.131 104.997,98.978 104.903 C 98.899 104.854,98.833 104.894,98.833 104.992 C 98.833 105.210,97.152 106.000,96.687 106.000 C 96.503 106.000,96.314 106.063,96.266 106.140 C 96.219 106.217,95.952 106.267,95.673 106.250 C 95.395 106.234,95.167 106.271,95.167 106.333 C 95.167 106.395,94.923 106.457,94.625 106.470 C 94.327 106.484,93.408 106.554,92.583 106.626 C 90.323 106.824,78.250 106.709,78.250 106.490 C 78.250 106.481,77.912 106.455,77.500 106.432 C 77.087 106.409,76.544 106.305,76.291 106.199 C 76.039 106.094,75.533 105.987,75.167 105.962 C 74.800 105.937,74.500 105.873,74.500 105.820 C 74.500 105.766,74.237 105.642,73.916 105.543 C 73.595 105.445,73.375 105.432,73.426 105.515 C 73.481 105.604,73.361 105.607,73.135 105.522 C 72.224 105.183,69.667 105.571,69.667 106.048 C 69.667 106.144,69.617 106.173,69.557 106.113 C 69.497 106.052,69.362 106.073,69.259 106.160 C 69.155 106.246,68.810 106.361,68.493 106.415 C 68.176 106.469,67.673 106.579,67.375 106.660 C 67.077 106.741,66.833 106.748,66.833 106.676 C 66.833 106.604,66.627 106.582,66.375 106.626 C 65.615 106.760,63.500 106.759,63.500 106.625 C 63.500 106.556,63.421 106.500,63.323 106.500 C 63.226 106.500,63.182 106.556,63.224 106.625 C 63.483 107.044,53.456 106.587,52.367 106.130 C 52.119 106.026,51.751 105.922,51.548 105.898 C 51.345 105.874,50.829 105.700,50.401 105.510 C 49.974 105.321,49.503 105.166,49.354 105.164 C 49.155 105.162,49.139 105.126,49.293 105.029 C 49.431 104.941,49.187 104.765,48.576 104.512 C 47.417 104.031,47.465 103.892,48.637 104.337 C 51.061 105.259,52.094 105.359,59.333 105.375 C 66.804 105.393,67.343 105.324,68.348 104.222 L 68.750 103.781 68.200 104.178 C 67.728 104.519,67.625 104.540,67.476 104.329 C 67.332 104.126,67.318 104.134,67.396 104.375 C 67.543 104.832,67.344 104.716,67.163 104.240 C 67.074 104.005,66.925 103.860,66.832 103.917 C 66.740 103.974,66.619 103.904,66.564 103.761 C 66.509 103.617,66.360 103.500,66.232 103.500 C 66.104 103.500,66.000 103.383,66.000 103.240 C 66.000 103.097,65.929 103.024,65.842 103.078 C 65.755 103.132,65.610 103.040,65.521 102.873 C 65.432 102.706,65.149 102.461,64.893 102.327 C 64.313 102.024,63.829 101.560,63.958 101.431 C 64.012 101.377,63.968 101.333,63.861 101.333 C 63.754 101.333,63.525 101.212,63.353 101.064 C 61.867 99.788,61.431 99.158,62.444 99.749 L 62.917 100.025 62.503 99.721 C 62.275 99.554,61.600 99.048,61.003 98.596 C 60.405 98.145,60.054 97.933,60.223 98.125 C 60.391 98.317,60.823 98.679,61.184 98.929 C 61.544 99.178,61.802 99.420,61.757 99.465 C 61.646 99.576,59.830 98.015,59.878 97.851 C 59.899 97.780,59.626 97.391,59.272 96.986 C 55.925 93.166,54.607 88.230,55.416 82.542 C 56.181 77.158,58.583 73.915,65.007 69.594 C 66.433 68.635,67.746 67.683,67.925 67.480 C 68.104 67.276,68.168 67.157,68.069 67.214 C 67.969 67.272,67.707 67.192,67.485 67.036 C 67.264 66.880,66.863 66.640,66.594 66.501 C 65.267 65.820,65.399 63.349,66.876 61.203 C 67.646 60.083,67.828 59.048,67.438 58.000 C 67.033 56.913,67.033 56.914,67.629 56.942 C 67.995 56.958,68.427 57.178,68.938 57.608 C 69.737 58.279,70.667 58.888,70.667 58.740 C 70.667 58.692,70.872 58.844,71.123 59.077 C 71.374 59.309,71.631 59.500,71.694 59.500 C 71.757 59.500,71.847 59.631,71.894 59.792 C 71.941 59.952,71.939 59.483,71.889 58.750 C 71.776 57.074,71.219 55.370,70.228 53.664 C 69.113 51.745,69.327 51.564,71.750 52.380 M65.753 54.462 C 65.690 54.795,65.484 55.371,65.295 55.742 C 65.106 56.113,64.955 56.454,64.961 56.500 C 64.967 56.546,64.904 56.665,64.822 56.764 C 64.739 56.863,64.631 57.688,64.582 58.597 C 64.438 61.225,63.947 62.021,60.414 65.359 C 59.274 66.437,57.873 68.016,57.408 68.750 C 57.234 69.025,57.044 69.287,56.987 69.333 C 56.781 69.499,55.339 71.769,54.976 72.500 C 54.862 72.729,54.683 73.029,54.578 73.167 C 54.337 73.484,53.434 75.681,53.140 76.667 C 52.919 77.410,52.893 79.873,53.045 85.708 C 53.078 86.969,53.063 88.000,53.011 88.000 C 52.892 88.000,52.936 91.011,53.080 92.667 C 53.246 94.584,53.491 95.508,53.946 95.930 C 54.693 96.621,53.760 96.207,52.934 95.481 C 51.481 94.201,51.290 92.774,51.376 83.826 C 51.411 80.118,51.490 76.896,51.551 76.667 C 51.611 76.438,51.707 76.025,51.762 75.750 C 52.396 72.622,55.645 67.648,59.601 63.750 C 62.135 61.253,62.524 60.618,62.925 58.310 C 63.074 57.452,63.301 56.469,63.430 56.125 C 63.559 55.781,63.630 55.500,63.588 55.500 C 63.547 55.500,63.775 54.956,64.095 54.292 C 64.421 53.617,64.642 52.936,64.596 52.750 C 64.541 52.524,64.731 52.647,65.190 53.136 C 65.803 53.788,65.856 53.912,65.753 54.462 M80.925 73.806 C 80.868 73.987,80.411 74.789,79.910 75.586 C 78.921 77.162,78.726 77.597,79.470 76.567 C 80.137 75.643,81.221 73.666,81.118 73.562 C 81.070 73.514,80.983 73.624,80.925 73.806 M60.194 77.744 C 57.370 80.961,55.781 85.966,56.489 89.417 C 56.593 89.924,56.616 89.739,56.583 88.645 C 56.461 84.575,58.255 79.819,60.737 77.632 C 61.109 77.304,61.175 77.178,60.976 77.173 C 60.825 77.170,60.473 77.427,60.194 77.744 M102.458 91.125 C 102.432 93.302,102.410 91.521,102.410 87.167 C 102.410 82.813,102.432 81.031,102.458 83.208 C 102.485 85.385,102.485 88.948,102.458 91.125 M64.807 85.458 C 64.989 85.710,65.420 86.179,65.765 86.500 C 66.204 86.909,66.123 86.772,65.492 86.042 C 64.538 84.936,64.263 84.702,64.807 85.458 M94.115 86.458 C 94.073 86.619,94.039 86.487,94.039 86.167 C 94.039 85.846,94.073 85.715,94.115 85.875 C 94.157 86.035,94.157 86.298,94.115 86.458 M90.417 89.417 C 90.417 90.665,90.465 91.513,90.525 91.302 C 90.585 91.090,90.633 90.242,90.633 89.417 C 90.633 88.592,90.585 87.743,90.525 87.532 C 90.465 87.320,90.417 88.168,90.417 89.417 M90.038 92.542 C 89.754 93.326,89.793 93.539,90.094 92.846 C 90.230 92.532,90.319 92.208,90.292 92.126 C 90.265 92.044,90.150 92.231,90.038 92.542 M58.917 97.000 C 58.860 97.092,58.349 97.154,57.782 97.138 L 56.750 97.109 57.833 97.000 C 58.429 96.940,58.940 96.878,58.968 96.862 C 58.996 96.846,58.973 96.908,58.917 97.000 M101.250 100.442 C 101.110 100.777,101.034 101.090,101.081 101.137 C 101.128 101.184,101.167 101.181,101.167 101.131 C 101.167 101.082,101.280 100.769,101.419 100.437 C 101.558 100.105,101.634 99.833,101.588 99.833 C 101.542 99.833,101.390 100.107,101.250 100.442 " stroke="none" fill="#eed6ab" fill-rule="evenodd"></path><path id="path1" d="M237.500 61.366 C 230.854 61.976,226.500 66.318,226.500 72.335 C 226.500 77.630,229.441 80.985,236.583 83.835 C 241.308 85.720,242.094 86.146,242.784 87.189 C 243.415 88.141,243.305 90.027,242.566 90.946 C 240.185 93.907,235.376 92.547,233.180 88.292 C 232.886 87.721,232.789 87.722,231.571 88.310 C 231.028 88.573,230.133 88.995,229.583 89.249 C 227.678 90.129,225.089 91.355,225.044 91.400 C 224.917 91.528,225.763 93.560,226.368 94.578 C 229.823 100.393,238.560 102.851,245.611 99.992 C 250.610 97.966,253.325 94.071,253.331 88.916 C 253.338 83.495,250.475 80.439,242.333 77.176 C 236.550 74.859,235.152 73.517,236.299 71.388 C 237.782 68.635,241.969 69.518,244.675 73.155 L 245.100 73.726 248.500 71.783 C 250.370 70.714,251.977 69.813,252.072 69.782 C 252.614 69.601,250.359 66.318,248.606 64.736 C 246.625 62.948,243.580 61.611,241.042 61.414 C 240.331 61.358,239.600 61.292,239.417 61.267 C 239.233 61.241,238.371 61.286,237.500 61.366 M132.000 81.250 L 132.000 100.667 136.833 100.667 L 141.667 100.667 141.667 93.000 L 141.667 85.333 147.833 85.333 L 154.000 85.333 154.000 81.167 L 154.000 77.000 147.833 77.000 L 141.667 77.000 141.667 73.833 L 141.667 70.667 148.083 70.667 L 154.500 70.667 154.500 66.250 L 154.500 61.833 143.250 61.833 L 132.000 61.833 132.000 81.250 M158.500 65.917 L 158.500 70.000 163.250 70.000 L 168.000 70.000 168.000 65.917 L 168.000 61.833 163.250 61.833 L 158.500 61.833 158.500 65.917 M256.667 65.917 L 256.667 70.000 261.417 70.000 L 266.167 70.000 266.167 65.917 L 266.167 61.833 261.417 61.833 L 256.667 61.833 256.667 65.917 M305.167 81.250 L 305.167 100.667 310.000 100.667 L 314.833 100.667 314.839 92.375 C 314.845 83.345,314.857 83.208,315.832 81.787 C 317.163 79.843,320.522 79.577,322.225 81.280 C 323.733 82.788,323.826 83.471,323.830 93.042 L 323.833 100.667 328.583 100.667 L 333.333 100.667 333.333 91.292 C 333.333 80.216,333.257 79.483,331.813 76.667 C 329.002 71.184,320.228 69.864,315.768 74.254 L 314.833 75.174 314.833 68.504 L 314.833 61.833 310.000 61.833 L 305.167 61.833 305.167 81.250 M340.167 68.583 L 340.167 72.167 338.000 72.167 L 335.833 72.167 335.833 75.917 L 335.833 79.667 338.000 79.667 L 340.167 79.667 340.167 85.875 C 340.168 94.664,340.493 96.258,342.749 98.540 C 345.317 101.138,351.916 101.879,355.224 99.941 L 356.000 99.486 356.000 95.808 C 356.000 92.799,355.959 92.147,355.776 92.217 C 354.243 92.805,351.955 92.711,351.000 92.021 C 349.830 91.174,349.833 91.195,349.833 85.142 L 349.833 79.667 352.833 79.667 L 355.833 79.667 355.833 75.917 L 355.833 72.167 352.833 72.167 L 349.833 72.167 349.833 68.583 L 349.833 65.000 345.000 65.000 L 340.167 65.000 340.167 68.583 M188.500 71.905 C 185.673 72.693,183.337 75.276,182.411 78.638 C 182.218 79.339,182.195 79.055,182.182 75.792 L 182.167 72.167 177.417 72.167 L 172.667 72.167 172.667 86.417 L 172.667 100.667 177.417 100.667 L 182.167 100.667 182.168 95.375 C 182.170 87.521,182.397 86.123,184.031 83.885 C 185.589 81.751,188.169 80.709,191.498 80.869 L 193.167 80.949 193.167 76.471 L 193.167 71.992 192.739 71.829 C 192.145 71.603,189.407 71.653,188.500 71.905 M205.713 71.912 C 195.189 74.003,190.542 86.874,197.142 95.653 C 202.218 102.404,214.508 103.121,220.235 96.999 L 221.038 96.141 220.560 95.623 C 220.298 95.338,219.510 94.500,218.808 93.761 C 218.107 93.022,217.391 92.240,217.217 92.024 L 216.901 91.631 215.461 92.321 C 211.510 94.216,206.627 93.757,204.401 91.281 C 203.997 90.831,203.667 90.397,203.667 90.315 C 203.667 90.230,207.747 90.167,213.250 90.167 C 220.802 90.167,222.835 90.123,222.839 89.958 C 222.843 89.844,222.913 89.000,222.996 88.083 C 223.963 77.390,215.937 69.881,205.713 71.912 M280.667 71.848 C 276.717 72.870,274.440 74.325,272.344 77.167 C 268.758 82.028,268.624 90.200,272.046 95.333 C 276.090 101.400,285.258 103.132,290.132 98.750 L 291.000 97.969 291.000 98.813 C 291.000 102.554,286.597 104.774,280.853 103.928 C 279.205 103.685,278.481 103.490,277.125 102.920 C 276.852 102.806,276.833 103.044,276.833 106.618 L 276.833 110.438 277.458 110.738 C 280.695 112.291,287.373 112.451,291.587 111.077 C 295.616 109.764,298.693 106.879,299.758 103.417 C 300.487 101.046,300.500 100.746,300.500 86.125 L 300.500 72.167 295.750 72.167 L 291.000 72.167 291.000 73.500 C 291.000 75.067,291.053 75.034,290.072 74.081 C 288.134 72.197,283.535 71.105,280.667 71.848 M158.500 86.417 L 158.500 100.667 163.250 100.667 L 168.000 100.667 168.000 86.417 L 168.000 72.167 163.250 72.167 L 158.500 72.167 158.500 86.417 M256.667 86.417 L 256.667 100.667 261.417 100.667 L 266.167 100.667 266.167 86.417 L 266.167 72.167 261.417 72.167 L 256.667 72.167 256.667 86.417 M211.119 80.024 C 212.391 80.495,213.241 81.184,213.840 82.229 C 214.622 83.593,214.994 83.500,208.740 83.500 L 203.146 83.500 203.609 82.649 C 204.985 80.122,208.277 78.971,211.119 80.024 M287.870 80.720 C 290.271 81.894,291.485 84.408,291.136 87.483 C 290.471 93.345,282.258 94.705,279.640 89.387 C 276.961 83.946,282.513 78.099,287.870 80.720 M82.482 104.239 C 82.446 104.274,81.817 104.322,81.083 104.347 C 80.350 104.372,79.631 104.450,79.485 104.521 C 79.339 104.592,78.912 104.668,78.536 104.690 C 78.161 104.713,77.884 104.780,77.922 104.841 C 77.959 104.902,78.386 104.886,78.870 104.806 C 79.354 104.726,80.125 104.668,80.583 104.677 C 81.042 104.687,81.492 104.681,81.583 104.664 C 81.675 104.647,81.994 104.646,82.292 104.663 C 82.590 104.679,82.833 104.616,82.833 104.523 C 82.833 104.337,82.586 104.138,82.482 104.239 M69.374 104.622 C 69.259 104.662,69.215 104.776,69.276 104.876 C 69.349 104.994,69.283 105.016,69.087 104.941 C 68.834 104.844,68.819 104.865,68.995 105.078 C 69.229 105.360,69.500 105.271,69.500 104.912 C 69.500 104.772,69.601 104.716,69.750 104.773 C 69.887 104.826,70.000 104.831,70.000 104.786 C 70.000 104.649,69.599 104.544,69.374 104.622 M75.922 104.658 C 75.861 104.757,75.918 104.791,76.058 104.737 C 76.191 104.686,76.350 104.725,76.411 104.825 C 76.473 104.924,76.596 104.960,76.685 104.905 C 76.775 104.850,76.941 104.882,77.055 104.976 C 77.185 105.084,77.352 105.090,77.506 104.993 C 77.640 104.908,77.712 104.832,77.667 104.824 C 77.621 104.817,77.377 104.783,77.126 104.750 C 76.874 104.717,76.524 104.644,76.348 104.588 C 76.172 104.532,75.980 104.564,75.922 104.658 M95.417 105.000 C 95.475 105.095,95.335 105.167,95.093 105.167 C 94.859 105.167,94.667 105.223,94.667 105.292 C 94.667 105.360,94.460 105.431,94.208 105.448 C 93.956 105.466,93.395 105.517,92.961 105.561 C 92.526 105.606,92.128 105.573,92.076 105.488 C 92.023 105.403,91.741 105.343,91.448 105.355 L 90.917 105.377 91.500 105.500 C 92.064 105.619,92.020 105.644,91.064 105.747 C 90.871 105.768,90.615 105.845,90.497 105.919 C 90.356 106.006,90.323 105.986,90.401 105.859 C 90.574 105.578,87.312 105.593,87.009 105.875 C 86.829 106.042,86.808 106.041,86.906 105.869 C 87.042 105.628,85.877 105.628,85.728 105.869 C 85.683 105.941,85.520 105.934,85.365 105.853 C 85.007 105.664,82.667 105.701,82.667 105.895 C 82.667 105.975,82.554 105.947,82.417 105.833 C 82.215 105.666,82.167 105.671,82.167 105.861 C 82.167 106.117,84.570 106.182,84.967 105.937 C 85.077 105.869,85.167 105.874,85.167 105.948 C 85.167 106.023,87.167 106.089,89.611 106.095 C 92.056 106.102,93.912 106.046,93.736 105.971 C 93.542 105.888,93.710 105.871,94.167 105.927 C 94.751 105.999,94.862 105.978,94.667 105.829 C 94.461 105.671,94.482 105.652,94.792 105.720 C 94.998 105.765,95.167 105.734,95.167 105.651 C 95.167 105.568,95.279 105.500,95.417 105.500 C 95.556 105.500,95.667 105.352,95.667 105.167 C 95.667 104.983,95.587 104.833,95.490 104.833 C 95.393 104.833,95.360 104.908,95.417 105.000 M66.917 105.287 C 66.469 105.397,66.150 105.671,66.260 105.850 C 66.310 105.931,66.228 105.949,66.078 105.892 C 65.857 105.807,65.848 105.757,66.028 105.628 C 66.191 105.511,66.169 105.495,65.945 105.568 C 65.777 105.622,65.529 105.667,65.393 105.667 C 65.241 105.667,65.195 105.746,65.272 105.875 C 65.369 106.036,65.343 106.040,65.157 105.890 C 64.950 105.723,63.292 105.695,61.750 105.832 C 61.567 105.848,61.079 105.855,60.667 105.847 C 60.254 105.839,59.598 105.860,59.208 105.894 C 58.819 105.929,58.500 105.889,58.500 105.806 C 58.500 105.723,58.342 105.740,58.149 105.843 C 57.895 105.979,57.747 105.980,57.615 105.849 C 57.515 105.749,57.355 105.668,57.258 105.669 C 57.162 105.671,57.196 105.744,57.333 105.833 C 57.512 105.949,57.325 105.996,56.681 105.997 C 56.184 105.999,55.819 106.042,55.870 106.093 C 55.986 106.208,60.155 106.281,60.083 106.167 C 60.036 106.091,61.867 106.096,62.252 106.173 C 62.604 106.244,62.848 106.159,62.750 106.000 C 62.685 105.895,63.034 105.843,63.698 105.858 C 64.734 105.883,64.739 105.885,64.000 106.000 L 63.250 106.117 64.042 106.156 C 64.477 106.177,65.265 106.188,65.792 106.179 C 66.319 106.171,67.023 106.167,67.357 106.171 C 67.691 106.175,68.067 106.076,68.192 105.951 C 68.317 105.826,68.494 105.747,68.585 105.776 C 68.676 105.804,68.862 105.757,68.999 105.671 C 69.411 105.410,68.962 105.086,68.518 105.324 C 68.297 105.442,68.167 105.450,68.167 105.344 C 68.167 105.144,67.671 105.311,67.363 105.616 C 67.091 105.885,66.725 105.896,66.567 105.641 C 66.500 105.532,66.521 105.493,66.616 105.552 C 66.709 105.609,66.927 105.548,67.100 105.417 C 67.274 105.285,67.379 105.184,67.333 105.191 C 67.287 105.199,67.100 105.242,66.917 105.287 M53.708 105.448 C 53.869 105.490,54.131 105.490,54.292 105.448 C 54.452 105.406,54.321 105.372,54.000 105.372 C 53.679 105.372,53.548 105.406,53.708 105.448 M58.964 105.456 C 59.448 105.490,60.198 105.490,60.631 105.456 C 61.063 105.421,60.667 105.394,59.750 105.394 C 58.833 105.395,58.480 105.423,58.964 105.456 M84.632 105.457 C 85.208 105.490,86.108 105.489,86.632 105.456 C 87.155 105.423,86.683 105.397,85.583 105.397 C 84.483 105.397,84.055 105.424,84.632 105.457 M55.282 105.773 C 55.155 105.901,55.296 106.167,55.492 106.167 C 55.568 106.167,55.674 106.054,55.727 105.917 C 55.822 105.669,55.493 105.563,55.282 105.773 M80.593 105.911 C 80.999 106.219,82.057 106.255,81.959 105.958 C 81.922 105.844,81.683 105.725,81.428 105.696 C 81.129 105.660,81.004 105.705,81.075 105.821 C 81.136 105.919,81.107 106.000,81.010 106.000 C 80.913 106.000,80.833 105.925,80.833 105.833 C 80.833 105.742,80.706 105.667,80.551 105.667 C 80.306 105.667,80.311 105.698,80.593 105.911 M53.938 105.965 C 53.893 106.038,54.114 106.067,54.428 106.030 C 54.743 105.994,55.000 105.934,55.000 105.898 C 55.000 105.773,54.019 105.835,53.938 105.965 " stroke="none" fill="#7c7363" fill-rule="evenodd"></path><path id="path2" d="M69.664 52.086 C 69.493 52.293,69.592 52.569,70.228 53.664 C 71.219 55.370,71.776 57.074,71.889 58.750 C 71.939 59.483,71.941 59.952,71.894 59.792 C 71.847 59.631,71.757 59.500,71.694 59.500 C 71.631 59.500,71.374 59.309,71.123 59.077 C 70.872 58.844,70.667 58.692,70.667 58.740 C 70.667 58.888,69.737 58.279,68.938 57.608 C 68.427 57.178,67.995 56.958,67.629 56.942 C 67.033 56.914,67.033 56.913,67.438 58.000 C 67.828 59.048,67.646 60.083,66.876 61.203 C 65.335 63.442,65.334 66.667,66.874 66.667 C 66.960 66.667,67.220 66.816,67.452 66.998 C 67.683 67.180,67.957 67.279,68.061 67.219 C 68.165 67.159,68.104 67.276,67.925 67.480 C 67.746 67.683,66.433 68.635,65.007 69.594 C 60.638 72.533,58.776 74.325,57.222 77.083 C 54.678 81.601,54.486 88.600,56.779 93.246 C 57.376 94.455,58.874 96.661,59.032 96.564 C 59.106 96.518,59.167 96.584,59.167 96.711 C 59.167 96.838,59.352 97.116,59.578 97.329 C 59.805 97.541,59.953 97.775,59.908 97.848 C 59.862 97.921,60.258 98.343,60.788 98.785 C 61.317 99.227,62.040 99.860,62.394 100.191 C 63.419 101.151,63.654 101.333,63.861 101.333 C 63.968 101.333,64.012 101.377,63.958 101.431 C 63.829 101.560,64.313 102.024,64.893 102.327 C 65.149 102.461,65.432 102.706,65.521 102.873 C 65.610 103.040,65.755 103.132,65.842 103.078 C 65.929 103.024,66.000 103.097,66.000 103.240 C 66.000 103.383,66.104 103.500,66.232 103.500 C 66.360 103.500,66.509 103.617,66.564 103.761 C 66.619 103.904,66.740 103.974,66.832 103.917 C 66.925 103.860,67.075 104.008,67.165 104.247 C 67.305 104.613,67.381 104.653,67.658 104.504 C 67.839 104.408,68.080 104.349,68.194 104.373 C 68.308 104.397,68.405 104.326,68.409 104.216 C 68.413 104.105,68.549 103.917,68.710 103.799 C 69.082 103.526,69.221 102.889,68.909 102.889 C 68.784 102.889,68.722 102.970,68.771 103.069 C 68.820 103.169,68.674 103.049,68.447 102.802 C 68.220 102.556,67.989 102.400,67.934 102.455 C 67.879 102.510,67.833 102.478,67.833 102.384 C 67.833 102.290,67.639 102.234,67.402 102.260 C 67.165 102.286,67.015 102.263,67.069 102.209 C 67.122 102.155,66.116 101.603,64.832 100.982 C 62.333 99.774,60.441 98.564,60.613 98.286 C 60.678 98.181,60.634 98.167,60.500 98.250 C 60.346 98.345,60.322 98.320,60.417 98.167 C 60.512 98.013,60.487 97.988,60.333 98.083 C 60.180 98.178,60.155 98.154,60.250 98.000 C 60.345 97.846,60.320 97.822,60.167 97.917 C 60.013 98.012,59.988 97.987,60.084 97.832 C 60.187 97.665,60.322 97.730,60.640 98.098 C 60.871 98.365,61.121 98.565,61.197 98.542 C 61.272 98.519,61.315 98.594,61.292 98.708 C 61.269 98.823,61.378 98.907,61.535 98.895 C 61.692 98.882,61.804 98.957,61.785 99.061 C 61.766 99.165,61.849 99.230,61.969 99.205 C 62.090 99.180,62.380 99.310,62.614 99.494 C 62.848 99.678,63.117 99.781,63.212 99.722 C 63.307 99.663,63.336 99.695,63.275 99.793 C 63.138 100.015,65.793 101.329,67.509 101.888 C 72.691 103.576,80.333 103.193,80.333 101.246 C 80.333 100.683,81.031 100.392,81.762 100.652 C 82.607 100.952,82.939 100.869,83.452 100.230 C 84.045 99.490,84.500 99.745,84.500 100.817 C 84.500 101.642,84.436 101.682,83.578 101.389 C 82.622 101.063,81.921 101.340,81.909 102.047 C 81.900 102.574,83.612 103.662,84.464 103.672 C 84.862 103.676,84.880 103.698,84.615 103.852 C 84.449 103.949,84.208 103.987,84.079 103.938 C 83.950 103.888,83.802 103.916,83.750 104.000 C 83.698 104.084,83.554 104.113,83.429 104.065 C 83.304 104.017,83.088 104.139,82.950 104.336 C 82.780 104.579,82.545 104.685,82.224 104.663 C 81.963 104.646,81.712 104.639,81.667 104.649 C 80.951 104.802,78.182 104.773,78.274 104.614 C 78.336 104.505,78.324 104.473,78.248 104.542 C 78.172 104.611,77.926 104.547,77.701 104.400 C 77.476 104.253,77.343 104.214,77.405 104.314 C 77.918 105.144,82.833 106.085,82.833 105.353 C 82.833 105.229,83.406 105.160,84.542 105.147 C 85.628 105.134,86.068 105.084,85.750 105.007 L 85.250 104.887 85.750 104.754 C 86.025 104.681,86.325 104.566,86.417 104.498 C 86.508 104.431,86.710 104.397,86.865 104.422 C 87.094 104.459,87.119 104.396,86.999 104.081 C 86.888 103.790,86.916 103.671,87.112 103.595 C 87.285 103.529,87.345 103.357,87.292 103.079 C 87.228 102.746,87.292 102.642,87.606 102.563 C 87.823 102.508,88.009 102.359,88.021 102.232 C 88.055 101.849,88.082 101.760,88.237 101.516 C 88.342 101.349,88.325 101.319,88.178 101.409 C 88.032 101.500,87.989 101.423,88.032 101.143 C 88.067 100.907,88.189 100.768,88.337 100.794 C 88.502 100.824,88.476 100.755,88.260 100.586 C 88.082 100.447,88.026 100.333,88.135 100.333 C 88.244 100.333,88.333 100.221,88.333 100.083 C 88.333 99.946,88.390 99.833,88.458 99.833 C 88.527 99.833,88.594 99.641,88.608 99.406 C 88.622 99.171,88.772 98.873,88.941 98.744 C 89.133 98.599,89.168 98.509,89.035 98.505 C 88.894 98.502,88.932 98.380,89.148 98.148 C 89.328 97.955,89.435 97.692,89.387 97.565 C 89.338 97.438,89.399 97.331,89.524 97.328 C 89.676 97.324,89.648 97.245,89.438 97.086 C 89.143 96.863,89.152 96.845,89.605 96.752 C 90.708 96.527,91.833 96.138,91.833 95.982 C 91.833 95.889,91.895 95.852,91.970 95.898 C 92.181 96.028,92.963 95.226,93.334 94.498 C 93.915 93.361,94.163 91.891,94.138 89.750 C 94.122 88.391,94.082 88.017,94.015 88.583 L 93.915 89.417 93.631 88.896 C 93.474 88.610,93.400 88.322,93.465 88.257 C 93.530 88.192,93.508 88.158,93.417 88.182 C 93.111 88.261,92.373 87.801,92.157 87.398 C 92.040 87.179,91.849 87.000,91.733 87.000 C 91.617 87.000,91.479 86.863,91.426 86.696 C 91.373 86.529,91.163 86.213,90.959 85.995 C 90.756 85.776,90.307 85.271,89.961 84.872 C 89.616 84.473,89.333 84.237,89.333 84.348 C 89.333 84.459,88.964 84.061,88.512 83.464 C 87.586 82.241,86.326 81.110,85.066 80.370 C 83.162 79.252,82.622 79.506,82.346 81.652 C 82.016 84.224,80.880 85.534,79.031 85.475 C 78.484 85.458,78.396 85.428,78.737 85.378 C 79.064 85.329,79.154 85.262,79.010 85.173 C 78.676 84.967,78.496 83.675,78.695 82.917 C 78.791 82.550,78.903 82.063,78.944 81.833 C 78.986 81.604,79.146 81.238,79.301 81.020 C 79.456 80.801,79.665 80.483,79.765 80.312 C 79.865 80.142,79.982 80.038,80.025 80.081 C 80.069 80.125,80.287 79.930,80.511 79.648 C 80.734 79.366,81.077 78.959,81.274 78.744 C 81.471 78.529,81.589 78.311,81.538 78.260 C 81.486 78.209,81.532 78.167,81.639 78.167 C 81.746 78.167,81.818 78.110,81.800 78.042 C 81.735 77.795,82.026 77.167,82.206 77.167 C 82.306 77.167,82.348 77.126,82.297 77.075 C 82.247 77.025,82.415 76.575,82.671 76.075 C 82.927 75.575,83.049 75.217,82.943 75.278 C 82.837 75.340,82.872 75.246,83.022 75.070 C 83.172 74.894,83.346 74.580,83.409 74.373 C 83.472 74.165,83.594 74.038,83.679 74.091 C 83.764 74.143,83.833 74.007,83.833 73.788 C 83.833 73.568,83.886 73.337,83.949 73.273 C 84.013 73.209,84.083 73.065,84.104 72.954 C 84.288 71.988,85.114 70.220,85.389 70.203 C 85.465 70.198,85.578 70.139,85.639 70.071 C 85.700 70.002,85.656 70.001,85.542 70.066 C 85.298 70.207,85.261 69.972,85.491 69.742 C 85.577 69.655,85.694 69.324,85.749 69.007 C 85.805 68.690,85.930 68.334,86.027 68.217 C 86.125 68.099,86.154 67.799,86.091 67.544 C 85.995 67.147,86.145 67.244,87.187 68.250 L 88.394 69.417 87.257 68.167 C 86.632 67.479,86.056 66.935,85.977 66.958 C 85.898 66.981,85.850 66.944,85.870 66.875 C 85.890 66.806,85.668 66.262,85.376 65.667 C 85.044 64.990,84.767 64.070,84.637 63.215 C 84.522 62.462,84.381 61.923,84.323 62.016 C 84.264 62.112,84.096 62.000,83.939 61.760 C 83.785 61.525,83.583 61.333,83.489 61.333 C 83.222 61.333,82.345 60.657,81.470 59.775 C 81.028 59.330,80.667 59.045,80.667 59.142 C 80.667 59.238,80.798 59.393,80.958 59.487 C 81.119 59.580,81.160 59.659,81.050 59.662 C 80.939 59.664,80.607 59.310,80.310 58.875 C 78.469 56.169,74.851 53.424,71.750 52.380 C 70.166 51.847,69.895 51.809,69.664 52.086 M64.596 52.750 C 64.642 52.936,64.421 53.617,64.095 54.292 C 63.775 54.956,63.547 55.500,63.588 55.500 C 63.630 55.500,63.559 55.781,63.430 56.125 C 63.301 56.469,63.074 57.452,62.925 58.310 C 62.524 60.618,62.135 61.253,59.601 63.750 C 55.645 67.648,52.396 72.622,51.762 75.750 C 51.707 76.025,51.611 76.438,51.550 76.667 C 51.387 77.279,51.289 91.380,51.448 91.284 C 51.522 91.239,51.595 91.663,51.609 92.226 C 51.646 93.697,52.345 95.405,52.757 95.034 C 52.828 94.969,52.836 95.006,52.774 95.114 C 52.657 95.317,53.474 96.019,54.074 96.232 C 54.329 96.323,54.307 96.264,53.968 95.950 C 53.489 95.506,53.249 94.616,53.080 92.667 C 52.936 91.011,52.892 88.000,53.011 88.000 C 53.063 88.000,53.078 86.969,53.045 85.708 C 52.893 79.873,52.919 77.410,53.140 76.667 C 53.434 75.681,54.337 73.484,54.578 73.167 C 54.683 73.029,54.862 72.729,54.976 72.500 C 55.339 71.769,56.781 69.499,56.987 69.333 C 57.044 69.287,57.234 69.025,57.408 68.750 C 57.873 68.016,59.274 66.437,60.414 65.359 C 63.947 62.021,64.438 61.225,64.582 58.597 C 64.631 57.688,64.739 56.863,64.822 56.764 C 64.904 56.665,64.967 56.546,64.961 56.500 C 64.955 56.454,65.106 56.113,65.295 55.742 C 65.972 54.415,65.953 53.948,65.190 53.136 C 64.731 52.647,64.541 52.524,64.596 52.750 M80.572 74.783 C 79.960 75.880,79.000 77.311,79.000 77.126 C 79.000 77.077,79.410 76.384,79.910 75.586 C 80.411 74.789,80.868 73.987,80.925 73.806 C 80.983 73.624,81.070 73.514,81.118 73.562 C 81.166 73.610,80.920 74.160,80.572 74.783 M60.737 77.632 C 58.255 79.819,56.461 84.575,56.583 88.645 C 56.616 89.739,56.593 89.924,56.489 89.417 C 56.035 87.205,56.620 83.772,57.879 81.250 C 58.848 79.311,60.481 77.161,60.976 77.173 C 61.175 77.178,61.109 77.304,60.737 77.632 M78.319 77.896 C 78.006 78.176,77.765 78.454,77.784 78.514 C 77.803 78.574,77.647 78.784,77.437 78.981 C 77.137 79.263,77.056 79.284,77.056 79.082 C 77.056 78.940,77.399 78.508,77.819 78.121 C 78.239 77.733,78.563 77.355,78.537 77.279 C 78.512 77.204,78.581 77.197,78.690 77.264 C 78.824 77.347,78.705 77.550,78.319 77.896 M102.410 87.167 C 102.410 91.521,102.432 93.302,102.458 91.125 C 102.485 88.948,102.485 85.385,102.458 83.208 C 102.432 81.031,102.410 82.813,102.410 87.167 M62.810 81.000 C 62.810 81.158,62.757 81.127,62.667 80.917 C 62.588 80.733,62.523 80.471,62.523 80.333 C 62.523 80.176,62.576 80.207,62.667 80.417 C 62.745 80.600,62.810 80.862,62.810 81.000 M63.322 82.250 C 63.322 82.342,63.214 82.229,63.083 82.000 C 62.952 81.771,62.845 81.508,62.845 81.417 C 62.845 81.325,62.952 81.438,63.083 81.667 C 63.214 81.896,63.322 82.158,63.322 82.250 M65.492 86.042 C 66.123 86.772,66.204 86.909,65.765 86.500 C 65.190 85.965,64.398 85.000,64.535 85.000 C 64.567 85.000,64.997 85.469,65.492 86.042 M94.039 86.167 C 94.039 86.487,94.073 86.619,94.115 86.458 C 94.157 86.298,94.157 86.035,94.115 85.875 C 94.073 85.715,94.039 85.846,94.039 86.167 M90.650 89.271 C 90.659 90.016,90.620 90.858,90.563 91.143 C 90.452 91.698,90.167 91.700,90.167 91.147 C 90.167 90.964,90.238 90.858,90.326 90.912 C 90.424 90.973,90.471 90.271,90.449 89.072 C 90.430 88.006,90.463 87.310,90.523 87.525 C 90.584 87.741,90.641 88.526,90.650 89.271 M362.253 90.768 C 358.559 91.946,357.360 96.700,360.026 99.592 C 361.895 101.620,365.418 101.757,367.503 99.882 C 371.732 96.080,367.676 89.039,362.253 90.768 M90.153 92.725 C 90.036 93.050,89.865 93.270,89.775 93.214 C 89.677 93.153,89.655 93.229,89.721 93.401 C 89.861 93.767,89.546 94.381,89.297 94.227 C 89.170 94.149,89.149 94.215,89.232 94.431 C 89.324 94.674,89.307 94.704,89.158 94.556 C 88.926 94.326,89.109 93.945,89.373 94.108 C 89.492 94.182,89.518 94.121,89.447 93.935 C 89.376 93.750,89.402 93.689,89.520 93.762 C 89.640 93.837,89.666 93.761,89.596 93.538 C 89.534 93.343,89.584 93.106,89.716 92.974 C 89.841 92.849,89.909 92.644,89.867 92.517 C 89.816 92.364,89.862 92.331,90.005 92.420 C 90.164 92.518,90.194 92.454,90.119 92.169 C 90.049 91.902,90.072 91.838,90.193 91.959 C 90.314 92.080,90.302 92.314,90.153 92.725 M88.945 95.084 C 88.795 95.193,88.727 95.344,88.794 95.418 C 88.862 95.493,88.831 95.504,88.726 95.444 C 88.531 95.333,88.248 95.781,88.321 96.083 C 88.343 96.175,88.306 96.195,88.239 96.128 C 88.171 96.060,88.021 96.135,87.905 96.294 C 87.602 96.709,87.910 97.010,88.515 96.889 C 88.821 96.828,89.000 96.861,89.000 96.979 C 89.000 97.093,88.670 97.167,88.157 97.167 C 87.624 97.167,87.352 97.229,87.419 97.337 C 87.477 97.431,87.429 97.488,87.312 97.462 C 87.194 97.437,87.086 97.510,87.070 97.625 C 87.054 97.740,87.023 97.890,87.001 97.958 C 86.979 98.027,86.976 98.158,86.994 98.250 C 87.013 98.342,86.971 98.360,86.901 98.290 C 86.832 98.221,86.596 98.331,86.378 98.536 C 86.073 98.823,86.007 98.842,86.092 98.621 C 86.156 98.455,86.124 98.333,86.018 98.333 C 85.916 98.333,85.833 98.443,85.833 98.577 C 85.833 98.712,85.691 98.898,85.516 98.991 C 85.247 99.136,85.212 99.112,85.286 98.830 C 85.379 98.473,84.945 98.351,84.743 98.678 C 84.682 98.776,84.530 98.817,84.404 98.768 C 84.278 98.720,84.101 98.809,84.009 98.965 C 83.918 99.122,83.841 99.187,83.838 99.110 C 83.829 98.841,84.753 97.670,85.054 97.570 C 85.222 97.515,85.318 97.429,85.268 97.379 C 85.219 97.330,85.372 97.137,85.609 96.950 C 85.845 96.764,86.144 96.380,86.272 96.097 C 86.483 95.632,86.501 95.623,86.461 96.000 C 86.435 96.244,86.496 96.402,86.609 96.380 C 86.973 96.312,87.022 96.859,86.661 96.953 C 86.473 97.002,86.346 97.122,86.379 97.219 C 86.457 97.453,85.900 98.000,85.583 98.000 C 85.446 98.000,85.333 98.112,85.333 98.250 C 85.333 98.594,85.558 98.563,85.913 98.171 C 86.213 97.839,86.602 97.866,86.394 98.204 C 86.325 98.315,86.360 98.337,86.482 98.261 C 86.625 98.173,86.632 98.076,86.506 97.924 C 86.303 97.679,86.684 97.249,86.917 97.460 C 86.992 97.528,87.006 97.500,86.949 97.399 C 86.891 97.298,87.028 97.041,87.254 96.829 C 87.480 96.617,87.939 96.046,88.273 95.560 C 88.608 95.074,88.957 94.724,89.049 94.781 C 89.150 94.843,89.108 94.964,88.945 95.084 M101.956 97.681 C 101.632 99.351,100.981 100.813,99.997 102.083 C 99.122 103.212,98.286 104.139,98.420 103.833 C 98.480 103.696,98.391 103.743,98.223 103.939 C 97.818 104.408,97.200 104.715,96.895 104.598 C 96.760 104.546,96.693 104.574,96.746 104.660 C 96.799 104.746,96.578 104.866,96.255 104.927 C 95.917 104.990,95.667 105.136,95.667 105.269 C 95.667 105.396,95.554 105.500,95.417 105.500 C 95.279 105.500,95.167 105.568,95.167 105.651 C 95.167 105.734,94.998 105.765,94.792 105.720 C 94.482 105.652,94.461 105.671,94.667 105.829 C 94.862 105.978,94.751 105.999,94.167 105.927 C 93.720 105.872,93.544 105.889,93.731 105.969 C 93.904 106.043,92.517 106.099,90.648 106.094 C 88.779 106.088,87.167 106.029,87.065 105.963 C 86.963 105.897,86.834 105.889,86.777 105.945 C 86.546 106.176,80.933 106.131,80.573 105.895 C 80.381 105.769,80.183 105.705,80.135 105.754 C 80.086 105.803,79.505 105.647,78.843 105.409 C 78.181 105.170,77.536 105.015,77.408 105.063 C 77.281 105.112,77.130 105.075,77.072 104.981 C 77.014 104.887,76.864 104.850,76.738 104.898 C 76.613 104.946,76.463 104.909,76.405 104.815 C 76.347 104.721,76.191 104.686,76.058 104.737 C 75.925 104.788,75.846 104.774,75.882 104.706 C 75.918 104.639,75.809 104.452,75.640 104.292 C 75.438 104.100,75.332 104.071,75.331 104.208 C 75.329 104.365,75.293 104.362,75.188 104.195 C 75.092 104.044,74.798 103.996,74.267 104.043 C 73.838 104.082,73.445 104.046,73.395 103.964 C 73.344 103.883,73.216 103.846,73.110 103.882 C 73.004 103.919,72.710 103.890,72.458 103.819 C 72.206 103.748,71.756 103.764,71.458 103.855 C 71.160 103.946,70.749 104.043,70.545 104.070 C 70.067 104.134,69.671 104.467,69.483 104.962 C 69.401 105.177,69.260 105.307,69.169 105.251 C 69.074 105.193,69.046 105.259,69.103 105.408 C 69.197 105.652,69.136 105.692,68.625 105.733 C 68.510 105.743,68.315 105.846,68.191 105.964 C 68.066 106.082,67.691 106.177,67.357 106.175 C 67.023 106.174,66.037 106.170,65.167 106.166 C 64.296 106.162,63.433 106.133,63.250 106.101 C 63.067 106.069,62.776 106.116,62.605 106.205 C 62.433 106.294,62.332 106.303,62.381 106.225 C 62.429 106.147,61.920 106.083,61.250 106.083 C 60.580 106.083,60.055 106.121,60.084 106.167 C 60.112 106.212,59.224 106.225,58.109 106.195 C 56.995 106.164,55.585 106.127,54.975 106.111 C 54.366 106.096,53.900 106.029,53.940 105.963 C 53.981 105.897,53.765 105.852,53.460 105.864 C 53.156 105.875,52.759 105.808,52.579 105.714 C 52.398 105.619,52.070 105.572,51.850 105.607 C 51.629 105.643,51.329 105.568,51.183 105.441 C 51.036 105.313,50.633 105.158,50.287 105.096 C 49.921 105.030,49.702 104.912,49.763 104.813 C 49.821 104.719,49.715 104.738,49.528 104.854 C 49.151 105.090,49.000 104.998,50.917 105.704 C 51.283 105.840,51.688 105.914,51.815 105.870 C 51.958 105.821,52.001 105.863,51.927 105.983 C 51.862 106.088,51.870 106.159,51.946 106.139 C 52.022 106.119,52.470 106.190,52.942 106.296 C 54.604 106.670,63.427 106.952,63.224 106.625 C 63.182 106.556,63.226 106.500,63.323 106.500 C 63.421 106.500,63.500 106.556,63.500 106.625 C 63.500 106.759,65.615 106.760,66.375 106.626 C 66.627 106.582,66.833 106.604,66.833 106.676 C 66.833 106.748,67.077 106.741,67.375 106.660 C 67.673 106.579,68.176 106.469,68.493 106.415 C 68.810 106.361,69.155 106.246,69.259 106.160 C 69.362 106.073,69.497 106.052,69.557 106.113 C 69.617 106.173,69.667 106.144,69.667 106.048 C 69.667 105.571,72.224 105.183,73.135 105.522 C 73.361 105.607,73.481 105.604,73.426 105.515 C 73.375 105.432,73.595 105.445,73.916 105.543 C 74.237 105.642,74.500 105.766,74.500 105.820 C 74.500 105.873,74.800 105.937,75.167 105.962 C 75.533 105.987,76.039 106.094,76.291 106.199 C 76.544 106.305,77.087 106.409,77.500 106.432 C 77.912 106.455,78.250 106.481,78.250 106.490 C 78.250 106.709,90.323 106.824,92.583 106.626 C 93.408 106.554,94.327 106.484,94.625 106.470 C 94.923 106.457,95.167 106.395,95.167 106.333 C 95.167 106.271,95.395 106.234,95.673 106.250 C 95.952 106.267,96.219 106.217,96.266 106.140 C 96.314 106.063,96.503 106.000,96.687 106.000 C 97.152 106.000,98.833 105.210,98.833 104.992 C 98.833 104.894,98.899 104.854,98.978 104.903 C 99.131 104.997,100.333 103.914,100.333 103.683 C 100.333 103.480,101.117 102.676,101.233 102.760 C 101.288 102.800,101.298 102.786,101.255 102.727 C 101.212 102.669,101.329 102.407,101.515 102.145 C 101.702 101.883,101.813 101.601,101.761 101.519 C 101.710 101.436,101.791 101.321,101.941 101.264 C 102.092 101.206,102.166 101.110,102.107 101.051 C 102.047 100.992,102.098 100.787,102.220 100.597 C 102.617 99.976,102.717 99.584,102.415 99.835 C 102.186 100.025,102.176 99.997,102.329 99.594 C 102.424 99.344,102.460 99.070,102.408 98.986 C 102.356 98.902,102.393 98.833,102.490 98.833 C 102.587 98.833,102.667 98.754,102.667 98.657 C 102.667 98.560,102.573 98.528,102.458 98.586 C 102.344 98.644,102.396 98.573,102.574 98.429 C 102.757 98.281,102.807 98.167,102.689 98.167 C 102.574 98.167,102.527 98.092,102.583 98.000 C 102.640 97.908,102.616 97.833,102.529 97.833 C 102.443 97.833,102.329 97.999,102.276 98.201 C 102.223 98.403,102.142 98.531,102.095 98.484 C 101.972 98.361,102.189 97.161,102.320 97.242 C 102.381 97.279,102.400 97.053,102.364 96.738 C 102.276 95.986,102.293 95.946,101.956 97.681 M57.833 97.000 L 56.750 97.109 57.782 97.138 C 58.349 97.154,58.860 97.092,58.917 97.000 C 58.973 96.908,58.996 96.846,58.968 96.862 C 58.940 96.878,58.429 96.940,57.833 97.000 M101.419 100.437 C 101.280 100.769,101.167 101.082,101.167 101.131 C 101.167 101.181,101.128 101.184,101.081 101.137 C 100.986 101.042,101.456 99.833,101.588 99.833 C 101.634 99.833,101.558 100.105,101.419 100.437 M47.667 104.036 C 47.876 104.258,48.833 104.659,48.833 104.524 C 48.833 104.440,48.702 104.334,48.542 104.288 C 48.381 104.242,48.100 104.147,47.917 104.076 C 47.733 104.005,47.621 103.987,47.667 104.036 M57.375 105.448 C 57.535 105.490,57.798 105.490,57.958 105.448 C 58.119 105.406,57.987 105.372,57.667 105.372 C 57.346 105.372,57.215 105.406,57.375 105.448 M88.377 105.453 C 88.631 105.491,89.006 105.490,89.211 105.451 C 89.416 105.411,89.208 105.380,88.750 105.381 C 88.292 105.382,88.124 105.415,88.377 105.453 M90.208 105.448 C 90.369 105.490,90.631 105.490,90.792 105.448 C 90.952 105.406,90.821 105.372,90.500 105.372 C 90.179 105.372,90.048 105.406,90.208 105.448 " stroke="none" fill="#ee7b42" fill-rule="evenodd"></path><path id="path3" d="M71.208 102.948 C 71.369 102.990,71.631 102.990,71.792 102.948 C 71.952 102.906,71.821 102.872,71.500 102.872 C 71.179 102.872,71.048 102.906,71.208 102.948 M74.125 103.121 C 74.423 103.158,74.910 103.158,75.208 103.121 C 75.506 103.084,75.262 103.053,74.667 103.053 C 74.071 103.053,73.827 103.084,74.125 103.121 M76.014 103.047 C 76.052 103.073,76.215 103.195,76.375 103.318 C 76.625 103.509,76.667 103.502,76.667 103.270 C 76.667 103.104,76.528 103.000,76.306 103.000 C 76.107 103.000,75.976 103.021,76.014 103.047 M50.917 105.167 C 51.100 105.245,51.400 105.308,51.583 105.305 C 51.851 105.301,51.835 105.274,51.500 105.167 C 50.930 104.984,50.492 104.984,50.917 105.167 M52.292 105.451 C 52.498 105.491,52.835 105.491,53.042 105.451 C 53.248 105.411,53.079 105.379,52.667 105.379 C 52.254 105.379,52.085 105.411,52.292 105.451 M55.375 105.624 C 56.085 105.655,57.248 105.655,57.958 105.624 C 58.669 105.593,58.087 105.567,56.667 105.567 C 55.246 105.567,54.665 105.593,55.375 105.624 M59.792 105.618 C 59.998 105.657,60.335 105.657,60.542 105.618 C 60.748 105.578,60.579 105.545,60.167 105.545 C 59.754 105.545,59.585 105.578,59.792 105.618 M62.049 105.624 C 62.671 105.656,63.646 105.656,64.215 105.623 C 64.784 105.591,64.275 105.564,63.083 105.565 C 61.892 105.565,61.426 105.592,62.049 105.624 M80.875 105.619 C 81.127 105.658,81.540 105.658,81.792 105.619 C 82.044 105.581,81.837 105.550,81.333 105.550 C 80.829 105.550,80.623 105.581,80.875 105.619 M88.963 105.622 C 89.355 105.657,89.955 105.657,90.296 105.621 C 90.637 105.585,90.317 105.557,89.583 105.557 C 88.850 105.558,88.571 105.587,88.963 105.622 " stroke="none" fill="#6e1f17" fill-rule="evenodd"></path><path id="path4" d="M77.575 78.375 L 76.917 79.083 77.625 78.425 C 78.284 77.812,78.410 77.667,78.284 77.667 C 78.257 77.667,77.938 77.985,77.575 78.375 M62.523 80.333 C 62.523 80.471,62.588 80.733,62.667 80.917 C 62.757 81.127,62.810 81.158,62.810 81.000 C 62.810 80.862,62.745 80.600,62.667 80.417 C 62.576 80.207,62.523 80.176,62.523 80.333 M62.845 81.417 C 62.845 81.508,62.952 81.771,63.083 82.000 C 63.214 82.229,63.322 82.342,63.322 82.250 C 63.322 82.158,63.214 81.896,63.083 81.667 C 62.952 81.438,62.845 81.325,62.845 81.417 M88.422 95.356 C 87.778 96.328,86.656 97.513,86.481 97.405 C 86.231 97.251,86.317 97.043,86.667 96.952 C 87.023 96.858,86.968 96.313,86.609 96.380 C 86.496 96.402,86.435 96.244,86.461 96.000 C 86.501 95.623,86.483 95.632,86.272 96.097 C 86.144 96.380,85.845 96.764,85.609 96.950 C 85.372 97.137,85.219 97.330,85.268 97.379 C 85.318 97.429,85.222 97.515,85.054 97.570 C 84.753 97.670,83.829 98.841,83.838 99.110 C 83.841 99.187,83.918 99.122,84.009 98.965 C 84.101 98.809,84.278 98.720,84.404 98.768 C 84.530 98.817,84.682 98.776,84.743 98.678 C 84.959 98.328,85.378 98.477,85.276 98.868 C 85.188 99.204,85.213 99.197,85.568 98.785 C 86.008 98.272,86.256 98.195,86.092 98.621 C 86.007 98.842,86.073 98.823,86.378 98.536 C 86.596 98.331,86.807 98.183,86.846 98.207 C 86.885 98.231,86.899 98.219,86.876 98.182 C 86.854 98.145,86.927 97.995,87.038 97.849 C 87.149 97.703,87.036 97.765,86.787 97.987 C 86.120 98.581,86.054 98.295,86.707 97.643 C 87.617 96.735,89.181 94.667,88.958 94.667 C 88.914 94.667,88.672 94.977,88.422 95.356 M87.792 97.118 C 87.998 97.157,88.335 97.157,88.542 97.118 C 88.748 97.078,88.579 97.045,88.167 97.045 C 87.754 97.045,87.585 97.078,87.792 97.118 M86.083 98.000 C 85.553 98.554,85.333 98.627,85.333 98.250 C 85.333 98.112,85.475 98.000,85.649 98.000 C 85.822 98.000,86.008 97.888,86.060 97.750 C 86.113 97.612,86.248 97.500,86.359 97.500 C 86.471 97.500,86.347 97.725,86.083 98.000 M62.500 99.583 C 62.811 99.813,63.106 100.000,63.157 99.999 C 63.315 99.998,62.260 99.179,62.093 99.173 C 62.006 99.169,62.189 99.354,62.500 99.583 M83.428 100.250 C 82.954 100.871,82.613 100.954,81.762 100.652 C 81.053 100.400,80.333 100.683,80.333 101.214 C 80.333 101.846,79.973 102.162,78.948 102.430 C 76.841 102.980,72.795 103.342,72.583 103.000 C 72.529 102.913,72.152 102.887,71.743 102.944 C 71.292 103.005,71.000 102.980,71.000 102.879 C 71.000 102.788,70.813 102.749,70.583 102.793 C 70.327 102.842,70.167 102.796,70.167 102.673 C 70.167 102.536,70.003 102.510,69.646 102.588 C 69.246 102.676,69.156 102.653,69.256 102.489 C 69.350 102.337,69.309 102.309,69.111 102.388 C 68.213 102.750,68.235 102.748,68.482 102.444 C 68.685 102.195,68.679 102.172,68.440 102.264 C 68.288 102.322,68.167 102.287,68.167 102.184 C 68.167 102.083,68.092 102.000,68.000 102.000 C 67.908 102.000,67.833 102.125,67.833 102.278 C 67.833 102.431,67.882 102.507,67.942 102.447 C 68.002 102.387,68.134 102.453,68.237 102.593 C 68.339 102.734,68.590 102.861,68.795 102.876 C 69.273 102.912,69.264 103.137,68.756 103.826 C 68.529 104.132,68.381 104.442,68.425 104.513 C 68.469 104.585,68.418 104.698,68.310 104.764 C 68.188 104.840,68.160 104.813,68.234 104.692 C 68.382 104.453,68.243 104.447,67.818 104.675 C 67.638 104.771,67.530 104.914,67.579 104.993 C 67.627 105.071,67.525 105.099,67.352 105.053 C 67.179 105.008,66.979 105.065,66.908 105.180 C 66.814 105.332,66.867 105.359,67.098 105.278 C 67.410 105.168,67.410 105.171,67.100 105.411 C 66.777 105.661,66.418 105.600,66.589 105.324 C 66.641 105.239,66.564 105.216,66.418 105.273 C 66.188 105.361,66.199 105.408,66.494 105.615 C 66.830 105.850,67.500 105.779,67.500 105.508 C 67.500 105.433,67.650 105.333,67.833 105.285 C 68.017 105.237,68.167 105.265,68.167 105.346 C 68.167 105.428,68.428 105.370,68.748 105.217 C 69.068 105.065,69.293 104.904,69.249 104.860 C 68.994 104.605,71.826 103.539,72.178 103.757 C 72.235 103.793,72.987 103.871,73.849 103.931 C 74.711 103.992,75.529 104.136,75.667 104.251 C 75.938 104.478,76.450 104.660,77.042 104.740 C 77.248 104.768,77.754 104.944,78.167 105.132 C 78.579 105.320,79.217 105.518,79.583 105.572 C 80.048 105.640,79.929 105.574,79.189 105.353 C 78.553 105.163,77.951 104.854,77.689 104.582 L 77.250 104.127 77.667 104.380 C 78.069 104.625,78.835 104.648,79.917 104.449 C 80.192 104.399,80.996 104.342,81.705 104.323 C 82.413 104.305,82.952 104.224,82.903 104.145 C 82.810 103.995,83.038 103.940,83.542 103.991 C 83.708 104.008,83.833 103.909,83.833 103.760 C 83.833 103.617,83.777 103.509,83.708 103.520 C 83.389 103.570,83.156 103.486,83.239 103.351 C 83.357 103.160,82.860 102.964,82.626 103.109 C 82.528 103.169,82.495 103.143,82.552 103.050 C 82.609 102.958,82.486 102.805,82.278 102.710 C 81.086 102.166,82.284 100.948,83.578 101.389 C 83.979 101.526,84.350 101.594,84.403 101.541 C 84.607 101.337,84.488 100.179,84.238 99.929 C 83.900 99.591,83.944 99.573,83.428 100.250 M64.167 100.595 C 64.167 100.631,64.542 100.851,65.000 101.083 C 65.458 101.316,65.833 101.444,65.833 101.369 C 65.833 101.294,65.458 101.074,65.000 100.881 C 64.542 100.687,64.167 100.558,64.167 100.595 M76.667 103.270 C 76.667 103.502,76.625 103.509,76.375 103.318 C 76.215 103.195,76.052 103.073,76.014 103.047 C 75.976 103.021,76.107 103.000,76.306 103.000 C 76.528 103.000,76.667 103.104,76.667 103.270 M49.250 104.756 C 49.525 104.882,49.862 104.983,50.000 104.980 C 50.137 104.977,49.987 104.874,49.667 104.750 C 48.906 104.457,48.606 104.461,49.250 104.756 M96.250 104.756 C 95.590 104.985,95.589 104.986,96.167 104.891 C 96.487 104.838,96.862 104.731,97.000 104.653 C 97.367 104.443,97.012 104.492,96.250 104.756 M93.250 105.333 C 92.955 105.460,92.969 105.478,93.375 105.488 C 93.627 105.495,93.833 105.425,93.833 105.333 C 93.833 105.138,93.705 105.138,93.250 105.333 M52.917 105.512 C 52.570 105.592,52.519 105.637,52.750 105.660 C 52.933 105.678,53.226 105.719,53.400 105.752 C 54.064 105.876,55.161 105.895,55.272 105.783 C 55.336 105.719,55.170 105.667,54.902 105.667 C 54.634 105.667,54.190 105.606,53.916 105.532 C 53.641 105.458,53.192 105.449,52.917 105.512 M65.460 105.472 C 65.236 105.560,65.311 105.630,65.794 105.781 C 66.304 105.940,66.364 105.937,66.128 105.763 C 65.969 105.646,65.887 105.502,65.947 105.442 C 66.083 105.306,65.841 105.321,65.460 105.472 M82.799 105.507 C 81.961 105.603,81.702 105.732,81.989 105.910 C 82.087 105.970,82.167 105.931,82.167 105.823 C 82.167 105.676,82.230 105.679,82.417 105.833 C 82.554 105.947,82.667 105.975,82.667 105.895 C 82.668 105.722,84.475 105.623,84.833 105.777 C 85.179 105.925,85.552 105.942,85.750 105.817 C 85.842 105.759,86.198 105.714,86.542 105.717 C 86.885 105.720,87.212 105.677,87.267 105.621 C 87.403 105.486,83.786 105.393,82.799 105.507 M91.417 105.504 C 90.809 105.617,90.834 105.626,91.708 105.606 C 92.235 105.594,92.667 105.527,92.667 105.459 C 92.667 105.316,92.372 105.327,91.417 105.504 M58.875 105.618 C 58.154 105.756,58.507 105.962,59.358 105.901 C 60.208 105.840,60.712 105.667,60.041 105.667 C 59.850 105.667,59.594 105.640,59.472 105.607 C 59.350 105.574,59.081 105.579,58.875 105.618 M60.617 105.701 C 60.497 105.777,60.616 105.836,60.917 105.848 C 61.192 105.860,61.660 105.882,61.957 105.899 C 62.254 105.916,62.441 105.878,62.373 105.815 C 62.187 105.643,60.847 105.555,60.617 105.701 M55.742 105.846 C 55.677 105.952,56.064 106.002,56.805 105.983 C 58.415 105.943,58.655 105.712,57.106 105.694 C 56.413 105.686,55.799 105.755,55.742 105.846 M63.125 105.954 C 63.423 105.991,63.910 105.991,64.208 105.954 C 64.506 105.917,64.262 105.887,63.667 105.887 C 63.071 105.887,62.827 105.917,63.125 105.954 " stroke="none" fill="#8e4b25" fill-rule="evenodd"></path></g></svg>