<svg width="400" height="163" viewBox="0 0 400 163" fill="none" xmlns="http://www.w3.org/2000/svg">
<path fill-rule="evenodd" clip-rule="evenodd" d="M70.4171 40.683C68.3791 40.79 65.8171 41.132 64.5001 41.47C64.1791 41.553 63.5041 41.712 63.0001 41.823C61.6591 42.119 60.6471 42.443 58.4171 43.291C57.7251 43.554 52.6691 46.018 52.0831 46.378C51.9001 46.49 51.5111 46.751 51.2191 46.958C50.9281 47.164 50.6421 47.333 50.5851 47.333C50.4431 47.333 47.9101 49.25 47.0771 49.987C46.7071 50.315 45.8541 51.07 45.1811 51.666C43.3101 53.322 39.4861 57.958 38.4991 59.767C38.3041 60.124 37.9901 60.679 37.8011 61C37.1451 62.111 35.7031 65.089 35.2581 66.25C35.0121 66.892 34.7091 67.679 34.5831 68C34.3091 68.703 33.9311 69.978 33.6941 71C33.5981 71.412 33.4071 72.237 33.2691 72.833C31.9941 78.347 32.1441 85.01 33.6931 91.667C35.5901 99.818 41.4501 108.42 48.9171 114.013C50.2861 115.038 53.8511 117.333 54.0751 117.333C54.1081 117.333 54.9111 117.703 55.8591 118.154C58.1651 119.251 62.6411 120.769 64.5001 121.083C64.8211 121.137 65.3461 121.25 65.6671 121.334C67.9101 121.919 73.9671 122.171 77.3331 121.819C80.6971 121.466 86.1021 120.097 88.7501 118.927C89.8681 118.433 93.4501 116.632 93.9171 116.328C94.1921 116.15 94.5291 115.951 94.6671 115.886C94.9961 115.732 98.1341 113.5 98.7461 112.986C102.512 109.817 106.626 105.162 107.72 102.833C107.784 102.696 107.982 102.358 108.158 102.083C108.335 101.808 108.831 100.908 109.261 100.083C109.691 99.258 110.098 98.508 110.167 98.417C110.502 97.969 111.634 94.839 112.427 92.167C114.238 86.061 114.313 79.239 112.656 71.25C112.134 68.734 109.963 63.339 108.665 61.333C108.576 61.196 108.359 60.821 108.183 60.5C105.975 56.481 98.8201 48.768 96.4171 47.816C96.3251 47.779 95.7251 47.403 95.0831 46.979C88.0701 42.347 79.6401 40.195 70.4171 40.683ZM71.7501 52.38C74.8511 53.424 78.4691 56.169 80.3101 58.875C80.6071 59.31 80.9391 59.664 81.0501 59.662C81.1601 59.659 81.1191 59.58 80.9581 59.487C80.7981 59.393 80.6671 59.238 80.6671 59.142C80.6671 59.045 81.0281 59.33 81.4701 59.775C82.3451 60.657 83.2221 61.333 83.4891 61.333C83.5831 61.333 83.7851 61.525 83.9391 61.76C84.0961 62 84.2641 62.112 84.3231 62.016C84.3811 61.923 84.5221 62.462 84.6371 63.215C84.7671 64.07 85.0441 64.99 85.3761 65.667C85.6681 66.262 85.8901 66.806 85.8701 66.875C85.8501 66.944 85.8981 66.981 85.9771 66.958C86.0561 66.935 86.6321 67.479 87.2571 68.167L88.3941 69.417L87.1871 68.25C86.1451 67.244 85.9951 67.147 86.0911 67.544C86.1541 67.799 86.1251 68.099 86.0271 68.217C85.9301 68.334 85.8051 68.69 85.7491 69.007C85.6941 69.324 85.5771 69.655 85.4911 69.742C85.2611 69.972 85.2981 70.207 85.5421 70.066C85.6561 70.001 85.7001 70.002 85.6391 70.071C85.5781 70.139 85.4651 70.198 85.3891 70.203C85.1141 70.22 84.2881 71.988 84.1041 72.954C84.0831 73.065 84.0131 73.209 83.9491 73.273C83.8861 73.337 83.8331 73.568 83.8331 73.788C83.8331 74.007 83.7641 74.143 83.6791 74.091C83.5941 74.038 83.4721 74.165 83.4091 74.373C83.3461 74.58 83.1721 74.894 83.0221 75.07C82.8721 75.246 82.8371 75.34 82.9431 75.278C83.0491 75.217 82.9271 75.575 82.6711 76.075C82.4151 76.575 82.2471 77.025 82.2971 77.075C82.3481 77.126 82.3061 77.167 82.2061 77.167C82.0261 77.167 81.7351 77.795 81.8001 78.042C81.8181 78.11 81.7461 78.167 81.6391 78.167C81.5321 78.167 81.4861 78.209 81.5381 78.26C81.5891 78.311 81.4711 78.529 81.2741 78.744C81.0771 78.959 80.7341 79.366 80.5111 79.648C80.2871 79.93 80.0691 80.125 80.0251 80.081C79.9821 80.038 79.8651 80.142 79.7651 80.312C79.6651 80.483 79.4561 80.801 79.3011 81.02C79.1461 81.238 78.9861 81.604 78.9441 81.833C78.9031 82.063 78.7911 82.55 78.6951 82.917C78.4961 83.675 78.6761 84.967 79.0101 85.173C79.1541 85.262 79.0641 85.329 78.7371 85.378C78.3961 85.428 78.4841 85.458 79.0311 85.475C80.8801 85.534 82.0161 84.224 82.3461 81.652C82.6221 79.506 83.1621 79.252 85.0661 80.37C86.3261 81.11 87.5861 82.241 88.5121 83.464C88.9641 84.061 89.3331 84.459 89.3331 84.348C89.3331 84.237 89.6161 84.473 89.9611 84.872C90.3071 85.271 90.7561 85.776 90.9591 85.995C91.1631 86.213 91.3731 86.529 91.4261 86.696C91.4791 86.863 91.6171 87 91.7331 87C91.8491 87 92.0401 87.179 92.1571 87.398C92.3731 87.801 93.1111 88.261 93.4171 88.182C93.5081 88.158 93.5301 88.192 93.4651 88.257C93.4001 88.322 93.4741 88.61 93.6311 88.896L93.9151 89.417L94.0151 88.583C94.0821 88.017 94.1221 88.391 94.1381 89.75C94.1931 94.416 93.1691 95.997 89.6051 96.749C89.1511 96.845 89.1421 96.863 89.4381 97.086C89.6481 97.245 89.6761 97.324 89.5241 97.328C89.3991 97.331 89.3381 97.438 89.3871 97.565C89.4351 97.692 89.3281 97.955 89.1481 98.148C88.9321 98.38 88.8941 98.502 89.0351 98.505C89.1681 98.509 89.1331 98.599 88.9411 98.744C88.7721 98.873 88.6221 99.171 88.6081 99.406C88.5941 99.641 88.5271 99.833 88.4581 99.833C88.3901 99.833 88.3331 99.946 88.3331 100.083C88.3331 100.221 88.2441 100.333 88.1351 100.333C88.0261 100.333 88.0821 100.447 88.2601 100.586C88.4761 100.755 88.5021 100.824 88.3371 100.794C88.1891 100.768 88.0671 100.907 88.0321 101.143C87.9891 101.423 88.0321 101.5 88.1781 101.409C88.3251 101.319 88.3421 101.349 88.2371 101.516C88.0821 101.76 88.0551 101.849 88.0211 102.232C88.0091 102.359 87.8231 102.508 87.6061 102.563C87.2921 102.642 87.2281 102.746 87.2921 103.079C87.3451 103.357 87.2851 103.529 87.1121 103.595C86.9161 103.671 86.8881 103.79 86.9991 104.081C87.1191 104.396 87.0941 104.459 86.8651 104.422C86.7101 104.397 86.5081 104.431 86.4171 104.498C86.3251 104.566 86.0251 104.681 85.7501 104.754L85.2501 104.887L85.7501 105.007C86.0831 105.087 85.6661 105.146 84.5001 105.182C83.2221 105.222 83.6941 105.261 86.2501 105.327C97.4101 105.614 100.681 104.014 101.971 97.639C102.239 96.317 102.297 96.176 102.358 96.697C102.398 97.034 102.381 97.279 102.32 97.242C102.189 97.161 101.972 98.361 102.095 98.484C102.142 98.531 102.223 98.403 102.276 98.201C102.329 97.999 102.443 97.833 102.529 97.833C102.616 97.833 102.64 97.908 102.583 98C102.527 98.092 102.574 98.167 102.689 98.167C102.807 98.167 102.757 98.281 102.574 98.429C102.396 98.573 102.344 98.644 102.458 98.586C102.573 98.528 102.667 98.56 102.667 98.657C102.667 98.754 102.587 98.833 102.49 98.833C102.393 98.833 102.356 98.902 102.408 98.986C102.46 99.07 102.424 99.344 102.329 99.594C102.176 99.997 102.186 100.025 102.415 99.835C102.717 99.584 102.617 99.976 102.22 100.597C102.098 100.787 102.047 100.992 102.107 101.051C102.166 101.11 102.092 101.206 101.941 101.264C101.791 101.321 101.71 101.436 101.761 101.519C101.813 101.601 101.702 101.883 101.515 102.145C101.329 102.407 101.193 102.65 101.213 102.685C101.233 102.721 101.223 102.736 101.191 102.719C101.099 102.67 100.333 103.531 100.333 103.683C100.333 103.914 99.1311 104.997 98.9781 104.903C98.8991 104.854 98.8331 104.894 98.8331 104.992C98.8331 105.21 97.1521 106 96.6871 106C96.5031 106 96.3141 106.063 96.2661 106.14C96.2191 106.217 95.9521 106.267 95.6731 106.25C95.3951 106.234 95.1671 106.271 95.1671 106.333C95.1671 106.395 94.9231 106.457 94.6251 106.47C94.3271 106.484 93.4081 106.554 92.5831 106.626C90.3231 106.824 78.2501 106.709 78.2501 106.49C78.2501 106.481 77.9121 106.455 77.5001 106.432C77.0871 106.409 76.5441 106.305 76.2911 106.199C76.0391 106.094 75.5331 105.987 75.1671 105.962C74.8001 105.937 74.5001 105.873 74.5001 105.82C74.5001 105.766 74.2371 105.642 73.9161 105.543C73.5951 105.445 73.3751 105.432 73.4261 105.515C73.4811 105.604 73.3611 105.607 73.1351 105.522C72.2241 105.183 69.6671 105.571 69.6671 106.048C69.6671 106.144 69.6171 106.173 69.5571 106.113C69.4971 106.052 69.3621 106.073 69.2591 106.16C69.1551 106.246 68.8101 106.361 68.4931 106.415C68.1761 106.469 67.6731 106.579 67.3751 106.66C67.0771 106.741 66.8331 106.748 66.8331 106.676C66.8331 106.604 66.6271 106.582 66.3751 106.626C65.6151 106.76 63.5001 106.759 63.5001 106.625C63.5001 106.556 63.4211 106.5 63.3231 106.5C63.2261 106.5 63.1821 106.556 63.2241 106.625C63.4831 107.044 53.4561 106.587 52.3671 106.13C52.1191 106.026 51.7511 105.922 51.5481 105.898C51.3451 105.874 50.8291 105.7 50.4011 105.51C49.9741 105.321 49.5031 105.166 49.3541 105.164C49.1551 105.162 49.1391 105.126 49.2931 105.029C49.4311 104.941 49.1871 104.765 48.5761 104.512C47.4171 104.031 47.4651 103.892 48.6371 104.337C51.0611 105.259 52.0941 105.359 59.3331 105.375C66.8041 105.393 67.3431 105.324 68.3481 104.222L68.7501 103.781L68.2001 104.178C67.7281 104.519 67.6251 104.54 67.4761 104.329C67.3321 104.126 67.3181 104.134 67.3961 104.375C67.5431 104.832 67.3441 104.716 67.1631 104.24C67.0741 104.005 66.9251 103.86 66.8321 103.917C66.7401 103.974 66.6191 103.904 66.5641 103.761C66.5091 103.617 66.3601 103.5 66.2321 103.5C66.1041 103.5 66.0001 103.383 66.0001 103.24C66.0001 103.097 65.9291 103.024 65.8421 103.078C65.7551 103.132 65.6101 103.04 65.5211 102.873C65.4321 102.706 65.1491 102.461 64.8931 102.327C64.3131 102.024 63.8291 101.56 63.9581 101.431C64.0121 101.377 63.9681 101.333 63.8611 101.333C63.7541 101.333 63.5251 101.212 63.3531 101.064C61.8671 99.788 61.4311 99.158 62.4441 99.749L62.9171 100.025L62.5031 99.721C62.2751 99.554 61.6001 99.048 61.0031 98.596C60.4051 98.145 60.0541 97.933 60.2231 98.125C60.3911 98.317 60.8231 98.679 61.1841 98.929C61.5441 99.178 61.8021 99.42 61.7571 99.465C61.6461 99.576 59.8301 98.015 59.8781 97.851C59.8991 97.78 59.6261 97.391 59.2721 96.986C55.9251 93.166 54.6071 88.23 55.4161 82.542C56.1811 77.158 58.5831 73.915 65.0071 69.594C66.4331 68.635 67.7461 67.683 67.9251 67.48C68.1041 67.276 68.1681 67.157 68.0691 67.214C67.9691 67.272 67.7071 67.192 67.4851 67.036C67.2641 66.88 66.8631 66.64 66.5941 66.501C65.2671 65.82 65.3991 63.349 66.8761 61.203C67.6461 60.083 67.8281 59.048 67.4381 58C67.0331 56.913 67.0331 56.914 67.6291 56.942C67.9951 56.958 68.4271 57.178 68.9381 57.608C69.7371 58.279 70.6671 58.888 70.6671 58.74C70.6671 58.692 70.8721 58.844 71.1231 59.077C71.3741 59.309 71.6311 59.5 71.6941 59.5C71.7571 59.5 71.8471 59.631 71.8941 59.792C71.9411 59.952 71.9391 59.483 71.8891 58.75C71.7761 57.074 71.2191 55.37 70.2281 53.664C69.1131 51.745 69.3271 51.564 71.7501 52.38ZM65.7531 54.462C65.6901 54.795 65.4841 55.371 65.2951 55.742C65.1061 56.113 64.9551 56.454 64.9611 56.5C64.9671 56.546 64.9041 56.665 64.8221 56.764C64.7391 56.863 64.6311 57.688 64.5821 58.597C64.4381 61.225 63.9471 62.021 60.4141 65.359C59.2741 66.437 57.8731 68.016 57.4081 68.75C57.2341 69.025 57.0441 69.287 56.9871 69.333C56.7811 69.499 55.3391 71.769 54.9761 72.5C54.8621 72.729 54.6831 73.029 54.5781 73.167C54.3371 73.484 53.4341 75.681 53.1401 76.667C52.9191 77.41 52.8931 79.873 53.0451 85.708C53.0781 86.969 53.0631 88 53.0111 88C52.8921 88 52.9361 91.011 53.0801 92.667C53.2461 94.584 53.4911 95.508 53.9461 95.93C54.6931 96.621 53.7601 96.207 52.9341 95.481C51.4811 94.201 51.2901 92.774 51.3761 83.826C51.4111 80.118 51.4901 76.896 51.5511 76.667C51.6111 76.438 51.7071 76.025 51.7621 75.75C52.3961 72.622 55.6451 67.648 59.6011 63.75C62.1351 61.253 62.5241 60.618 62.9251 58.31C63.0741 57.452 63.3011 56.469 63.4301 56.125C63.5591 55.781 63.6301 55.5 63.5881 55.5C63.5471 55.5 63.7751 54.956 64.0951 54.292C64.4211 53.617 64.6421 52.936 64.5961 52.75C64.5411 52.524 64.7311 52.647 65.1901 53.136C65.8031 53.788 65.8561 53.912 65.7531 54.462ZM80.9251 73.806C80.8681 73.987 80.4111 74.789 79.9101 75.586C78.9211 77.162 78.7261 77.597 79.4701 76.567C80.1371 75.643 81.2211 73.666 81.1181 73.562C81.0701 73.514 80.9831 73.624 80.9251 73.806ZM60.1941 77.744C57.3701 80.961 55.7811 85.966 56.4891 89.417C56.5931 89.924 56.6161 89.739 56.5831 88.645C56.4611 84.575 58.2551 79.819 60.7371 77.632C61.1091 77.304 61.1751 77.178 60.9761 77.173C60.8251 77.17 60.4731 77.427 60.1941 77.744ZM102.458 91.125C102.432 93.302 102.41 91.521 102.41 87.167C102.41 82.813 102.432 81.031 102.458 83.208C102.485 85.385 102.485 88.948 102.458 91.125ZM64.8071 85.458C64.9891 85.71 65.4201 86.179 65.7651 86.5C66.2041 86.909 66.1231 86.772 65.4921 86.042C64.5381 84.936 64.2631 84.702 64.8071 85.458ZM94.1151 86.458C94.0731 86.619 94.0391 86.487 94.0391 86.167C94.0391 85.846 94.0731 85.715 94.1151 85.875C94.1571 86.035 94.1571 86.298 94.1151 86.458ZM90.4171 89.417C90.4171 90.665 90.4651 91.513 90.5251 91.302C90.5851 91.09 90.6331 90.242 90.6331 89.417C90.6331 88.592 90.5851 87.743 90.5251 87.532C90.4651 87.32 90.4171 88.168 90.4171 89.417ZM90.0381 92.542C89.7541 93.326 89.7931 93.539 90.0941 92.846C90.2301 92.532 90.3191 92.208 90.2921 92.126C90.2651 92.044 90.1501 92.231 90.0381 92.542ZM58.9171 97C58.8601 97.092 58.3491 97.154 57.7821 97.138L56.7501 97.109L57.8331 97C58.4291 96.94 58.9401 96.878 58.9681 96.862C58.9961 96.846 58.9731 96.908 58.9171 97ZM101.25 100.442C101.11 100.777 101.034 101.09 101.081 101.137C101.128 101.184 101.167 101.181 101.167 101.131C101.167 101.082 101.28 100.769 101.419 100.437C101.558 100.105 101.634 99.833 101.588 99.833C101.542 99.833 101.39 100.107 101.25 100.442Z" fill="#EED6AB"/>
<path fill-rule="evenodd" clip-rule="evenodd" d="M237.5 61.366C230.854 61.976 226.5 66.318 226.5 72.335C226.5 77.63 229.441 80.985 236.583 83.835C241.308 85.72 242.094 86.146 242.784 87.189C243.415 88.141 243.305 90.027 242.566 90.946C240.185 93.907 235.376 92.547 233.18 88.292C232.886 87.721 232.789 87.722 231.571 88.31C231.028 88.573 230.133 88.995 229.583 89.249C227.678 90.129 225.089 91.355 225.044 91.4C224.917 91.528 225.763 93.56 226.368 94.578C229.823 100.393 238.56 102.851 245.611 99.992C250.61 97.966 253.325 94.071 253.331 88.916C253.338 83.495 250.475 80.439 242.333 77.176C236.55 74.859 235.152 73.517 236.299 71.388C237.782 68.635 241.969 69.518 244.675 73.155L245.1 73.726L248.5 71.783C250.37 70.714 251.977 69.813 252.072 69.782C252.614 69.601 250.359 66.318 248.606 64.736C246.625 62.948 243.58 61.611 241.042 61.414C240.331 61.358 239.6 61.292 239.417 61.267C239.233 61.241 238.371 61.286 237.5 61.366ZM132 81.25V100.667H136.833H141.667V93V85.333H147.833H154V81.167V77H147.833H141.667V73.833V70.667H148.083H154.5V66.25V61.833H143.25H132V81.25ZM158.5 65.917V70H163.25H168V65.917V61.833H163.25H158.5V65.917ZM256.667 65.917V70H261.417H266.167V65.917V61.833H261.417H256.667V65.917ZM305.167 81.25V100.667H310H314.833L314.839 92.375C314.845 83.345 314.857 83.208 315.832 81.787C317.163 79.843 320.522 79.577 322.225 81.28C323.733 82.788 323.826 83.471 323.83 93.042L323.833 100.667H328.583H333.333V91.292C333.333 80.216 333.257 79.483 331.813 76.667C329.002 71.184 320.228 69.864 315.768 74.254L314.833 75.174V68.504V61.833H310H305.167V81.25ZM340.167 68.583V72.167H338H335.833V75.917V79.667H338H340.167V85.875C340.168 94.664 340.493 96.258 342.749 98.54C345.317 101.138 351.916 101.879 355.224 99.941L356 99.486V95.808C356 92.799 355.959 92.147 355.776 92.217C354.243 92.805 351.955 92.711 351 92.021C349.83 91.174 349.833 91.195 349.833 85.142V79.667H352.833H355.833V75.917V72.167H352.833H349.833V68.583V65H345H340.167V68.583ZM188.5 71.905C185.673 72.693 183.337 75.276 182.411 78.638C182.218 79.339 182.195 79.055 182.182 75.792L182.167 72.167H177.417H172.667V86.417V100.667H177.417H182.167L182.168 95.375C182.17 87.521 182.397 86.123 184.031 83.885C185.589 81.751 188.169 80.709 191.498 80.869L193.167 80.949V76.471V71.992L192.739 71.829C192.145 71.603 189.407 71.653 188.5 71.905ZM205.713 71.912C195.189 74.003 190.542 86.874 197.142 95.653C202.218 102.404 214.508 103.121 220.235 96.999L221.038 96.141L220.56 95.623C220.298 95.338 219.51 94.5 218.808 93.761C218.107 93.022 217.391 92.24 217.217 92.024L216.901 91.631L215.461 92.321C211.51 94.216 206.627 93.757 204.401 91.281C203.997 90.831 203.667 90.397 203.667 90.315C203.667 90.23 207.747 90.167 213.25 90.167C220.802 90.167 222.835 90.123 222.839 89.958C222.843 89.844 222.913 89 222.996 88.083C223.963 77.39 215.937 69.881 205.713 71.912ZM280.667 71.848C276.717 72.87 274.44 74.325 272.344 77.167C268.758 82.028 268.624 90.2 272.046 95.333C276.09 101.4 285.258 103.132 290.132 98.75L291 97.969V98.813C291 102.554 286.597 104.774 280.853 103.928C279.205 103.685 278.481 103.49 277.125 102.92C276.852 102.806 276.833 103.044 276.833 106.618V110.438L277.458 110.738C280.695 112.291 287.373 112.451 291.587 111.077C295.616 109.764 298.693 106.879 299.758 103.417C300.487 101.046 300.5 100.746 300.5 86.125V72.167H295.75H291V73.5C291 75.067 291.053 75.034 290.072 74.081C288.134 72.197 283.535 71.105 280.667 71.848ZM158.5 86.417V100.667H163.25H168V86.417V72.167H163.25H158.5V86.417ZM256.667 86.417V100.667H261.417H266.167V86.417V72.167H261.417H256.667V86.417ZM211.119 80.024C212.391 80.495 213.241 81.184 213.84 82.229C214.622 83.593 214.994 83.5 208.74 83.5H203.146L203.609 82.649C204.985 80.122 208.277 78.971 211.119 80.024ZM287.87 80.72C290.271 81.894 291.485 84.408 291.136 87.483C290.471 93.345 282.258 94.705 279.64 89.387C276.961 83.946 282.513 78.099 287.87 80.72ZM82.4821 104.239C82.4461 104.274 81.8171 104.322 81.0831 104.347C80.3501 104.372 79.6311 104.45 79.4851 104.521C79.3391 104.592 78.9121 104.668 78.5361 104.69C78.1611 104.713 77.8841 104.78 77.9221 104.841C77.9591 104.902 78.3861 104.886 78.8701 104.806C79.3541 104.726 80.1251 104.668 80.5831 104.677C81.0421 104.687 81.4921 104.681 81.5831 104.664C81.6751 104.647 81.9941 104.646 82.2921 104.663C82.5901 104.679 82.8331 104.616 82.8331 104.523C82.8331 104.337 82.5861 104.138 82.4821 104.239ZM69.3741 104.622C69.2591 104.662 69.2151 104.776 69.2761 104.876C69.3491 104.994 69.2831 105.016 69.0871 104.941C68.8341 104.844 68.8191 104.865 68.9951 105.078C69.2291 105.36 69.5001 105.271 69.5001 104.912C69.5001 104.772 69.6011 104.716 69.7501 104.773C69.8871 104.826 70.0001 104.831 70.0001 104.786C70.0001 104.649 69.5991 104.544 69.3741 104.622ZM75.9221 104.658C75.8611 104.757 75.9181 104.791 76.0581 104.737C76.1911 104.686 76.3501 104.725 76.4111 104.825C76.4731 104.924 76.5961 104.96 76.6851 104.905C76.7751 104.85 76.9411 104.882 77.0551 104.976C77.1851 105.084 77.3521 105.09 77.5061 104.993C77.6401 104.908 77.7121 104.832 77.6671 104.824C77.6211 104.817 77.3771 104.783 77.1261 104.75C76.8741 104.717 76.5241 104.644 76.3481 104.588C76.1721 104.532 75.9801 104.564 75.9221 104.658ZM95.4171 105C95.4751 105.095 95.3351 105.167 95.0931 105.167C94.8591 105.167 94.6671 105.223 94.6671 105.292C94.6671 105.36 94.4601 105.431 94.2081 105.448C93.9561 105.466 93.3951 105.517 92.9611 105.561C92.5261 105.606 92.1281 105.573 92.0761 105.488C92.0231 105.403 91.7411 105.343 91.4481 105.355L90.9171 105.377L91.5001 105.5C92.0641 105.619 92.0201 105.644 91.0641 105.747C90.8711 105.768 90.6151 105.845 90.4971 105.919C90.3561 106.006 90.3231 105.986 90.4011 105.859C90.5741 105.578 87.3121 105.593 87.0091 105.875C86.8291 106.042 86.8081 106.041 86.9061 105.869C87.0421 105.628 85.8771 105.628 85.7281 105.869C85.6831 105.941 85.5201 105.934 85.3651 105.853C85.0071 105.664 82.6671 105.701 82.6671 105.895C82.6671 105.975 82.5541 105.947 82.4171 105.833C82.2151 105.666 82.1671 105.671 82.1671 105.861C82.1671 106.117 84.5701 106.182 84.9671 105.937C85.0771 105.869 85.1671 105.874 85.1671 105.948C85.1671 106.023 87.1671 106.089 89.6111 106.095C92.0561 106.102 93.9121 106.046 93.7361 105.971C93.5421 105.888 93.7101 105.871 94.1671 105.927C94.7511 105.999 94.8621 105.978 94.6671 105.829C94.4611 105.671 94.4821 105.652 94.7921 105.72C94.9981 105.765 95.1671 105.734 95.1671 105.651C95.1671 105.568 95.2791 105.5 95.4171 105.5C95.5561 105.5 95.6671 105.352 95.6671 105.167C95.6671 104.983 95.5871 104.833 95.4901 104.833C95.3931 104.833 95.3601 104.908 95.4171 105ZM66.9171 105.287C66.4691 105.397 66.1501 105.671 66.2601 105.85C66.3101 105.931 66.2281 105.949 66.0781 105.892C65.8571 105.807 65.8481 105.757 66.0281 105.628C66.1911 105.511 66.1691 105.495 65.9451 105.568C65.7771 105.622 65.5291 105.667 65.3931 105.667C65.2411 105.667 65.1951 105.746 65.2721 105.875C65.3691 106.036 65.3431 106.04 65.1571 105.89C64.9501 105.723 63.2921 105.695 61.7501 105.832C61.5671 105.848 61.0791 105.855 60.6671 105.847C60.2541 105.839 59.5981 105.86 59.2081 105.894C58.8191 105.929 58.5001 105.889 58.5001 105.806C58.5001 105.723 58.3421 105.74 58.1491 105.843C57.8951 105.979 57.7471 105.98 57.6151 105.849C57.5151 105.749 57.3551 105.668 57.2581 105.669C57.1621 105.671 57.1961 105.744 57.3331 105.833C57.5121 105.949 57.3251 105.996 56.6811 105.997C56.1841 105.999 55.8191 106.042 55.8701 106.093C55.9861 106.208 60.1551 106.281 60.0831 106.167C60.0361 106.091 61.8671 106.096 62.2521 106.173C62.6041 106.244 62.8481 106.159 62.7501 106C62.6851 105.895 63.0341 105.843 63.6981 105.858C64.7341 105.883 64.7391 105.885 64.0001 106L63.2501 106.117L64.0421 106.156C64.4771 106.177 65.2651 106.188 65.7921 106.179C66.3191 106.171 67.0231 106.167 67.3571 106.171C67.6911 106.175 68.0671 106.076 68.1921 105.951C68.3171 105.826 68.4941 105.747 68.5851 105.776C68.6761 105.804 68.8621 105.757 68.9991 105.671C69.4111 105.41 68.9621 105.086 68.5181 105.324C68.2971 105.442 68.1671 105.45 68.1671 105.344C68.1671 105.144 67.6711 105.311 67.3631 105.616C67.0911 105.885 66.7251 105.896 66.5671 105.641C66.5001 105.532 66.5211 105.493 66.6161 105.552C66.7091 105.609 66.9271 105.548 67.1001 105.417C67.2741 105.285 67.3791 105.184 67.3331 105.191C67.2871 105.199 67.1001 105.242 66.9171 105.287ZM53.7081 105.448C53.8691 105.49 54.1311 105.49 54.2921 105.448C54.4521 105.406 54.3211 105.372 54.0001 105.372C53.6791 105.372 53.5481 105.406 53.7081 105.448ZM58.9641 105.456C59.4481 105.49 60.1981 105.49 60.6311 105.456C61.0631 105.421 60.6671 105.394 59.7501 105.394C58.8331 105.395 58.4801 105.423 58.9641 105.456ZM84.6321 105.457C85.2081 105.49 86.1081 105.489 86.6321 105.456C87.1551 105.423 86.6831 105.397 85.5831 105.397C84.4831 105.397 84.0551 105.424 84.6321 105.457ZM55.2821 105.773C55.1551 105.901 55.2961 106.167 55.4921 106.167C55.5681 106.167 55.6741 106.054 55.7271 105.917C55.8221 105.669 55.4931 105.563 55.2821 105.773ZM80.5931 105.911C80.9991 106.219 82.0571 106.255 81.9591 105.958C81.9221 105.844 81.6831 105.725 81.4281 105.696C81.1291 105.66 81.0041 105.705 81.0751 105.821C81.1361 105.919 81.1071 106 81.0101 106C80.9131 106 80.8331 105.925 80.8331 105.833C80.8331 105.742 80.7061 105.667 80.5511 105.667C80.3061 105.667 80.3111 105.698 80.5931 105.911ZM53.9381 105.965C53.8931 106.038 54.1141 106.067 54.4281 106.03C54.7431 105.994 55.0001 105.934 55.0001 105.898C55.0001 105.773 54.0191 105.835 53.9381 105.965Z" fill="white"/>
<path fill-rule="evenodd" clip-rule="evenodd" d="M69.6641 52.086C69.4931 52.293 69.5921 52.569 70.2281 53.664C71.2191 55.37 71.7761 57.074 71.8891 58.75C71.9391 59.483 71.9411 59.952 71.8941 59.792C71.8471 59.631 71.7571 59.5 71.6941 59.5C71.6311 59.5 71.3741 59.309 71.1231 59.077C70.8721 58.844 70.6671 58.692 70.6671 58.74C70.6671 58.888 69.7371 58.279 68.9381 57.608C68.4271 57.178 67.9951 56.958 67.6291 56.942C67.0331 56.914 67.0331 56.913 67.4381 58C67.8281 59.048 67.6461 60.083 66.8761 61.203C65.3351 63.442 65.3341 66.667 66.8741 66.667C66.9601 66.667 67.2201 66.816 67.4521 66.998C67.6831 67.18 67.9571 67.279 68.0611 67.219C68.1651 67.159 68.1041 67.276 67.9251 67.48C67.7461 67.683 66.4331 68.635 65.0071 69.594C60.6381 72.533 58.7761 74.325 57.2221 77.083C54.6781 81.601 54.4861 88.6 56.7791 93.246C57.3761 94.455 58.8741 96.661 59.0321 96.564C59.1061 96.518 59.1671 96.584 59.1671 96.711C59.1671 96.838 59.3521 97.116 59.5781 97.329C59.8051 97.541 59.9531 97.775 59.9081 97.848C59.8621 97.921 60.2581 98.343 60.7881 98.785C61.3171 99.227 62.0401 99.86 62.3941 100.191C63.4191 101.151 63.6541 101.333 63.8611 101.333C63.9681 101.333 64.0121 101.377 63.9581 101.431C63.8291 101.56 64.3131 102.024 64.8931 102.327C65.1491 102.461 65.4321 102.706 65.5211 102.873C65.6101 103.04 65.7551 103.132 65.8421 103.078C65.9291 103.024 66.0001 103.097 66.0001 103.24C66.0001 103.383 66.1041 103.5 66.2321 103.5C66.3601 103.5 66.5091 103.617 66.5641 103.761C66.6191 103.904 66.7401 103.974 66.8321 103.917C66.9251 103.86 67.0751 104.008 67.1651 104.247C67.3051 104.613 67.3811 104.653 67.6581 104.504C67.8391 104.408 68.0801 104.349 68.1941 104.373C68.3081 104.397 68.4051 104.326 68.4091 104.216C68.4131 104.105 68.5491 103.917 68.7101 103.799C69.0821 103.526 69.2211 102.889 68.9091 102.889C68.7841 102.889 68.7221 102.97 68.7711 103.069C68.8201 103.169 68.6741 103.049 68.4471 102.802C68.2201 102.556 67.9891 102.4 67.9341 102.455C67.8791 102.51 67.8331 102.478 67.8331 102.384C67.8331 102.29 67.6391 102.234 67.4021 102.26C67.1651 102.286 67.0151 102.263 67.0691 102.209C67.1221 102.155 66.1161 101.603 64.8321 100.982C62.3331 99.774 60.4411 98.564 60.6131 98.286C60.6781 98.181 60.6341 98.167 60.5001 98.25C60.3461 98.345 60.3221 98.32 60.4171 98.167C60.5121 98.013 60.4871 97.988 60.3331 98.083C60.1801 98.178 60.1551 98.154 60.2501 98C60.3451 97.846 60.3201 97.822 60.1671 97.917C60.0131 98.012 59.9881 97.987 60.0841 97.832C60.1871 97.665 60.3221 97.73 60.6401 98.098C60.8711 98.365 61.1211 98.565 61.1971 98.542C61.2721 98.519 61.3151 98.594 61.2921 98.708C61.2691 98.823 61.3781 98.907 61.5351 98.895C61.6921 98.882 61.8041 98.957 61.7851 99.061C61.7661 99.165 61.8491 99.23 61.9691 99.205C62.0901 99.18 62.3801 99.31 62.6141 99.494C62.8481 99.678 63.1171 99.781 63.2121 99.722C63.3071 99.663 63.3361 99.695 63.2751 99.793C63.1381 100.015 65.7931 101.329 67.5091 101.888C72.6911 103.576 80.3331 103.193 80.3331 101.246C80.3331 100.683 81.0311 100.392 81.7621 100.652C82.6071 100.952 82.9391 100.869 83.4521 100.23C84.0451 99.49 84.5001 99.745 84.5001 100.817C84.5001 101.642 84.4361 101.682 83.5781 101.389C82.6221 101.063 81.9211 101.34 81.9091 102.047C81.9001 102.574 83.6121 103.662 84.4641 103.672C84.8621 103.676 84.8801 103.698 84.6151 103.852C84.4491 103.949 84.2081 103.987 84.0791 103.938C83.9501 103.888 83.8021 103.916 83.7501 104C83.6981 104.084 83.5541 104.113 83.4291 104.065C83.3041 104.017 83.0881 104.139 82.9501 104.336C82.7801 104.579 82.5451 104.685 82.2241 104.663C81.9631 104.646 81.7121 104.639 81.6671 104.649C80.9511 104.802 78.1821 104.773 78.2741 104.614C78.3361 104.505 78.3241 104.473 78.2481 104.542C78.1721 104.611 77.9261 104.547 77.7011 104.4C77.4761 104.253 77.3431 104.214 77.4051 104.314C77.9181 105.144 82.8331 106.085 82.8331 105.353C82.8331 105.229 83.4061 105.16 84.5421 105.147C85.6281 105.134 86.0681 105.084 85.7501 105.007L85.2501 104.887L85.7501 104.754C86.0251 104.681 86.3251 104.566 86.4171 104.498C86.5081 104.431 86.7101 104.397 86.8651 104.422C87.0941 104.459 87.1191 104.396 86.9991 104.081C86.8881 103.79 86.9161 103.671 87.1121 103.595C87.2851 103.529 87.3451 103.357 87.2921 103.079C87.2281 102.746 87.2921 102.642 87.6061 102.563C87.8231 102.508 88.0091 102.359 88.0211 102.232C88.0551 101.849 88.0821 101.76 88.2371 101.516C88.3421 101.349 88.3251 101.319 88.1781 101.409C88.0321 101.5 87.9891 101.423 88.0321 101.143C88.0671 100.907 88.1891 100.768 88.3371 100.794C88.5021 100.824 88.4761 100.755 88.2601 100.586C88.0821 100.447 88.0261 100.333 88.1351 100.333C88.2441 100.333 88.3331 100.221 88.3331 100.083C88.3331 99.946 88.3901 99.833 88.4581 99.833C88.5271 99.833 88.5941 99.641 88.6081 99.406C88.6221 99.171 88.7721 98.873 88.9411 98.744C89.1331 98.599 89.1681 98.509 89.0351 98.505C88.8941 98.502 88.9321 98.38 89.1481 98.148C89.3281 97.955 89.4351 97.692 89.3871 97.565C89.3381 97.438 89.3991 97.331 89.5241 97.328C89.6761 97.324 89.6481 97.245 89.4381 97.086C89.1431 96.863 89.1521 96.845 89.6051 96.752C90.7081 96.527 91.8331 96.138 91.8331 95.982C91.8331 95.889 91.8951 95.852 91.9701 95.898C92.1811 96.028 92.9631 95.226 93.3341 94.498C93.9151 93.361 94.1631 91.891 94.1381 89.75C94.1221 88.391 94.0821 88.017 94.0151 88.583L93.9151 89.417L93.6311 88.896C93.4741 88.61 93.4001 88.322 93.4651 88.257C93.5301 88.192 93.5081 88.158 93.4171 88.182C93.1111 88.261 92.3731 87.801 92.1571 87.398C92.0401 87.179 91.8491 87 91.7331 87C91.6171 87 91.4791 86.863 91.4261 86.696C91.3731 86.529 91.1631 86.213 90.9591 85.995C90.7561 85.776 90.3071 85.271 89.9611 84.872C89.6161 84.473 89.3331 84.237 89.3331 84.348C89.3331 84.459 88.9641 84.061 88.5121 83.464C87.5861 82.241 86.3261 81.11 85.0661 80.37C83.1621 79.252 82.6221 79.506 82.3461 81.652C82.0161 84.224 80.8801 85.534 79.0311 85.475C78.4841 85.458 78.3961 85.428 78.7371 85.378C79.0641 85.329 79.1541 85.262 79.0101 85.173C78.6761 84.967 78.4961 83.675 78.6951 82.917C78.7911 82.55 78.9031 82.063 78.9441 81.833C78.9861 81.604 79.1461 81.238 79.3011 81.02C79.4561 80.801 79.6651 80.483 79.7651 80.312C79.8651 80.142 79.9821 80.038 80.0251 80.081C80.0691 80.125 80.2871 79.93 80.5111 79.648C80.7341 79.366 81.0771 78.959 81.2741 78.744C81.4711 78.529 81.5891 78.311 81.5381 78.26C81.4861 78.209 81.5321 78.167 81.6391 78.167C81.7461 78.167 81.8181 78.11 81.8001 78.042C81.7351 77.795 82.0261 77.167 82.2061 77.167C82.3061 77.167 82.3481 77.126 82.2971 77.075C82.2471 77.025 82.4151 76.575 82.6711 76.075C82.9271 75.575 83.0491 75.217 82.9431 75.278C82.8371 75.34 82.8721 75.246 83.0221 75.07C83.1721 74.894 83.3461 74.58 83.4091 74.373C83.4721 74.165 83.5941 74.038 83.6791 74.091C83.7641 74.143 83.8331 74.007 83.8331 73.788C83.8331 73.568 83.8861 73.337 83.9491 73.273C84.0131 73.209 84.0831 73.065 84.1041 72.954C84.2881 71.988 85.1141 70.22 85.3891 70.203C85.4651 70.198 85.5781 70.139 85.6391 70.071C85.7001 70.002 85.6561 70.001 85.5421 70.066C85.2981 70.207 85.2611 69.972 85.4911 69.742C85.5771 69.655 85.6941 69.324 85.7491 69.007C85.8051 68.69 85.9301 68.334 86.0271 68.217C86.1251 68.099 86.1541 67.799 86.0911 67.544C85.9951 67.147 86.1451 67.244 87.1871 68.25L88.3941 69.417L87.2571 68.167C86.6321 67.479 86.0561 66.935 85.9771 66.958C85.8981 66.981 85.8501 66.944 85.8701 66.875C85.8901 66.806 85.6681 66.262 85.3761 65.667C85.0441 64.99 84.7671 64.07 84.6371 63.215C84.5221 62.462 84.3811 61.923 84.3231 62.016C84.2641 62.112 84.0961 62 83.9391 61.76C83.7851 61.525 83.5831 61.333 83.4891 61.333C83.2221 61.333 82.3451 60.657 81.4701 59.775C81.0281 59.33 80.6671 59.045 80.6671 59.142C80.6671 59.238 80.7981 59.393 80.9581 59.487C81.1191 59.58 81.1601 59.659 81.0501 59.662C80.9391 59.664 80.6071 59.31 80.3101 58.875C78.4691 56.169 74.8511 53.424 71.7501 52.38C70.1661 51.847 69.8951 51.809 69.6641 52.086ZM64.5961 52.75C64.6421 52.936 64.4211 53.617 64.0951 54.292C63.7751 54.956 63.5471 55.5 63.5881 55.5C63.6301 55.5 63.5591 55.781 63.4301 56.125C63.3011 56.469 63.0741 57.452 62.9251 58.31C62.5241 60.618 62.1351 61.253 59.6011 63.75C55.6451 67.648 52.3961 72.622 51.7621 75.75C51.7071 76.025 51.6111 76.438 51.5501 76.667C51.3871 77.279 51.2891 91.38 51.4481 91.284C51.5221 91.239 51.5951 91.663 51.6091 92.226C51.6461 93.697 52.3451 95.405 52.7571 95.034C52.8281 94.969 52.8361 95.006 52.7741 95.114C52.6571 95.317 53.4741 96.019 54.0741 96.232C54.3291 96.323 54.3071 96.264 53.9681 95.95C53.4891 95.506 53.2491 94.616 53.0801 92.667C52.9361 91.011 52.8921 88 53.0111 88C53.0631 88 53.0781 86.969 53.0451 85.708C52.8931 79.873 52.9191 77.41 53.1401 76.667C53.4341 75.681 54.3371 73.484 54.5781 73.167C54.6831 73.029 54.8621 72.729 54.9761 72.5C55.3391 71.769 56.7811 69.499 56.9871 69.333C57.0441 69.287 57.2341 69.025 57.4081 68.75C57.8731 68.016 59.2741 66.437 60.4141 65.359C63.9471 62.021 64.4381 61.225 64.5821 58.597C64.6311 57.688 64.7391 56.863 64.8221 56.764C64.9041 56.665 64.9671 56.546 64.9611 56.5C64.9551 56.454 65.1061 56.113 65.2951 55.742C65.9721 54.415 65.9531 53.948 65.1901 53.136C64.7311 52.647 64.5411 52.524 64.5961 52.75ZM80.5721 74.783C79.9601 75.88 79.0001 77.311 79.0001 77.126C79.0001 77.077 79.4101 76.384 79.9101 75.586C80.4111 74.789 80.8681 73.987 80.9251 73.806C80.9831 73.624 81.0701 73.514 81.1181 73.562C81.1661 73.61 80.9201 74.16 80.5721 74.783ZM60.7371 77.632C58.2551 79.819 56.4611 84.575 56.5831 88.645C56.6161 89.739 56.5931 89.924 56.4891 89.417C56.0351 87.205 56.6201 83.772 57.8791 81.25C58.8481 79.311 60.4811 77.161 60.9761 77.173C61.1751 77.178 61.1091 77.304 60.7371 77.632ZM78.3191 77.896C78.0061 78.176 77.7651 78.454 77.7841 78.514C77.8031 78.574 77.6471 78.784 77.4371 78.981C77.1371 79.263 77.0561 79.284 77.0561 79.082C77.0561 78.94 77.3991 78.508 77.8191 78.121C78.2391 77.733 78.5631 77.355 78.5371 77.279C78.5121 77.204 78.5811 77.197 78.6901 77.264C78.8241 77.347 78.7051 77.55 78.3191 77.896ZM102.41 87.167C102.41 91.521 102.432 93.302 102.458 91.125C102.485 88.948 102.485 85.385 102.458 83.208C102.432 81.031 102.41 82.813 102.41 87.167ZM62.8101 81C62.8101 81.158 62.7571 81.127 62.6671 80.917C62.5881 80.733 62.5231 80.471 62.5231 80.333C62.5231 80.176 62.5761 80.207 62.6671 80.417C62.7451 80.6 62.8101 80.862 62.8101 81ZM63.3221 82.25C63.3221 82.342 63.2141 82.229 63.0831 82C62.9521 81.771 62.8451 81.508 62.8451 81.417C62.8451 81.325 62.9521 81.438 63.0831 81.667C63.2141 81.896 63.3221 82.158 63.3221 82.25ZM65.4921 86.042C66.1231 86.772 66.2041 86.909 65.7651 86.5C65.1901 85.965 64.3981 85 64.5351 85C64.5671 85 64.9971 85.469 65.4921 86.042ZM94.0391 86.167C94.0391 86.487 94.0731 86.619 94.1151 86.458C94.1571 86.298 94.1571 86.035 94.1151 85.875C94.0731 85.715 94.0391 85.846 94.0391 86.167ZM90.6501 89.271C90.6591 90.016 90.6201 90.858 90.5631 91.143C90.4521 91.698 90.1671 91.7 90.1671 91.147C90.1671 90.964 90.2381 90.858 90.3261 90.912C90.4241 90.973 90.4711 90.271 90.4491 89.072C90.4301 88.006 90.4631 87.31 90.5231 87.525C90.5841 87.741 90.6411 88.526 90.6501 89.271ZM362.253 90.768C358.559 91.946 357.36 96.7 360.026 99.592C361.895 101.62 365.418 101.757 367.503 99.882C371.732 96.08 367.676 89.039 362.253 90.768ZM90.1531 92.725C90.0361 93.05 89.8651 93.27 89.7751 93.214C89.6771 93.153 89.6551 93.229 89.7211 93.401C89.8611 93.767 89.5461 94.381 89.2971 94.227C89.1701 94.149 89.1491 94.215 89.2321 94.431C89.3241 94.674 89.3071 94.704 89.1581 94.556C88.9261 94.326 89.1091 93.945 89.3731 94.108C89.4921 94.182 89.5181 94.121 89.4471 93.935C89.3761 93.75 89.4021 93.689 89.5201 93.762C89.6401 93.837 89.6661 93.761 89.5961 93.538C89.5341 93.343 89.5841 93.106 89.7161 92.974C89.8411 92.849 89.9091 92.644 89.8671 92.517C89.8161 92.364 89.8621 92.331 90.0051 92.42C90.1641 92.518 90.1941 92.454 90.1191 92.169C90.0491 91.902 90.0721 91.838 90.1931 91.959C90.3141 92.08 90.3021 92.314 90.1531 92.725ZM88.9451 95.084C88.7951 95.193 88.7271 95.344 88.7941 95.418C88.8621 95.493 88.8311 95.504 88.7261 95.444C88.5311 95.333 88.2481 95.781 88.3211 96.083C88.3431 96.175 88.3061 96.195 88.2391 96.128C88.1711 96.06 88.0211 96.135 87.9051 96.294C87.6021 96.709 87.9101 97.01 88.5151 96.889C88.8211 96.828 89.0001 96.861 89.0001 96.979C89.0001 97.093 88.6701 97.167 88.1571 97.167C87.6241 97.167 87.3521 97.229 87.4191 97.337C87.4771 97.431 87.4291 97.488 87.3121 97.462C87.1941 97.437 87.0861 97.51 87.0701 97.625C87.0541 97.74 87.0231 97.89 87.0011 97.958C86.9791 98.027 86.9761 98.158 86.9941 98.25C87.0131 98.342 86.9711 98.36 86.9011 98.29C86.8321 98.221 86.5961 98.331 86.3781 98.536C86.0731 98.823 86.0071 98.842 86.0921 98.621C86.1561 98.455 86.1241 98.333 86.0181 98.333C85.9161 98.333 85.8331 98.443 85.8331 98.577C85.8331 98.712 85.6911 98.898 85.5161 98.991C85.2471 99.136 85.2121 99.112 85.2861 98.83C85.3791 98.473 84.9451 98.351 84.7431 98.678C84.6821 98.776 84.5301 98.817 84.4041 98.768C84.2781 98.72 84.1011 98.809 84.0091 98.965C83.9181 99.122 83.8411 99.187 83.8381 99.11C83.8291 98.841 84.7531 97.67 85.0541 97.57C85.2221 97.515 85.3181 97.429 85.2681 97.379C85.2191 97.33 85.3721 97.137 85.6091 96.95C85.8451 96.764 86.1441 96.38 86.2721 96.097C86.4831 95.632 86.5011 95.623 86.4611 96C86.4351 96.244 86.4961 96.402 86.6091 96.38C86.9731 96.312 87.0221 96.859 86.6611 96.953C86.4731 97.002 86.3461 97.122 86.3791 97.219C86.4571 97.453 85.9001 98 85.5831 98C85.4461 98 85.3331 98.112 85.3331 98.25C85.3331 98.594 85.5581 98.563 85.9131 98.171C86.2131 97.839 86.6021 97.866 86.3941 98.204C86.3251 98.315 86.3601 98.337 86.4821 98.261C86.6251 98.173 86.6321 98.076 86.5061 97.924C86.3031 97.679 86.6841 97.249 86.9171 97.46C86.9921 97.528 87.0061 97.5 86.9491 97.399C86.8911 97.298 87.0281 97.041 87.2541 96.829C87.4801 96.617 87.9391 96.046 88.2731 95.56C88.6081 95.074 88.9571 94.724 89.0491 94.781C89.1501 94.843 89.1081 94.964 88.9451 95.084ZM101.956 97.681C101.632 99.351 100.981 100.813 99.9971 102.083C99.1221 103.212 98.2861 104.139 98.4201 103.833C98.4801 103.696 98.3911 103.743 98.2231 103.939C97.8181 104.408 97.2001 104.715 96.8951 104.598C96.7601 104.546 96.6931 104.574 96.7461 104.66C96.7991 104.746 96.5781 104.866 96.2551 104.927C95.9171 104.99 95.6671 105.136 95.6671 105.269C95.6671 105.396 95.5541 105.5 95.4171 105.5C95.2791 105.5 95.1671 105.568 95.1671 105.651C95.1671 105.734 94.9981 105.765 94.7921 105.72C94.4821 105.652 94.4611 105.671 94.6671 105.829C94.8621 105.978 94.7511 105.999 94.1671 105.927C93.7201 105.872 93.5441 105.889 93.7311 105.969C93.9041 106.043 92.5171 106.099 90.6481 106.094C88.7791 106.088 87.1671 106.029 87.0651 105.963C86.9631 105.897 86.8341 105.889 86.7771 105.945C86.5461 106.176 80.9331 106.131 80.5731 105.895C80.3811 105.769 80.1831 105.705 80.1351 105.754C80.0861 105.803 79.5051 105.647 78.8431 105.409C78.1811 105.17 77.5361 105.015 77.4081 105.063C77.2811 105.112 77.1301 105.075 77.0721 104.981C77.0141 104.887 76.8641 104.85 76.7381 104.898C76.6131 104.946 76.4631 104.909 76.4051 104.815C76.3471 104.721 76.1911 104.686 76.0581 104.737C75.9251 104.788 75.8461 104.774 75.8821 104.706C75.9181 104.639 75.8091 104.452 75.6401 104.292C75.4381 104.1 75.3321 104.071 75.3311 104.208C75.3291 104.365 75.2931 104.362 75.1881 104.195C75.0921 104.044 74.7981 103.996 74.2671 104.043C73.8381 104.082 73.4451 104.046 73.3951 103.964C73.3441 103.883 73.2161 103.846 73.1101 103.882C73.0041 103.919 72.7101 103.89 72.4581 103.819C72.2061 103.748 71.7561 103.764 71.4581 103.855C71.1601 103.946 70.7491 104.043 70.5451 104.07C70.0671 104.134 69.6711 104.467 69.4831 104.962C69.4011 105.177 69.2601 105.307 69.1691 105.251C69.0741 105.193 69.0461 105.259 69.1031 105.408C69.1971 105.652 69.1361 105.692 68.6251 105.733C68.5101 105.743 68.3151 105.846 68.1911 105.964C68.0661 106.082 67.6911 106.177 67.3571 106.175C67.0231 106.174 66.0371 106.17 65.1671 106.166C64.2961 106.162 63.4331 106.133 63.2501 106.101C63.0671 106.069 62.7761 106.116 62.6051 106.205C62.4331 106.294 62.3321 106.303 62.3811 106.225C62.4291 106.147 61.9201 106.083 61.2501 106.083C60.5801 106.083 60.0551 106.121 60.0841 106.167C60.1121 106.212 59.2241 106.225 58.1091 106.195C56.9951 106.164 55.5851 106.127 54.9751 106.111C54.3661 106.096 53.9001 106.029 53.9401 105.963C53.9811 105.897 53.7651 105.852 53.4601 105.864C53.1561 105.875 52.7591 105.808 52.5791 105.714C52.3981 105.619 52.0701 105.572 51.8501 105.607C51.6291 105.643 51.3291 105.568 51.1831 105.441C51.0361 105.313 50.6331 105.158 50.2871 105.096C49.9211 105.03 49.7021 104.912 49.7631 104.813C49.8211 104.719 49.7151 104.738 49.5281 104.854C49.1511 105.09 49.0001 104.998 50.9171 105.704C51.2831 105.84 51.6881 105.914 51.8151 105.87C51.9581 105.821 52.0011 105.863 51.9271 105.983C51.8621 106.088 51.8701 106.159 51.9461 106.139C52.0221 106.119 52.4701 106.19 52.9421 106.296C54.6041 106.67 63.4271 106.952 63.2241 106.625C63.1821 106.556 63.2261 106.5 63.3231 106.5C63.4211 106.5 63.5001 106.556 63.5001 106.625C63.5001 106.759 65.6151 106.76 66.3751 106.626C66.6271 106.582 66.8331 106.604 66.8331 106.676C66.8331 106.748 67.0771 106.741 67.3751 106.66C67.6731 106.579 68.1761 106.469 68.4931 106.415C68.8101 106.361 69.1551 106.246 69.2591 106.16C69.3621 106.073 69.4971 106.052 69.5571 106.113C69.6171 106.173 69.6671 106.144 69.6671 106.048C69.6671 105.571 72.2241 105.183 73.1351 105.522C73.3611 105.607 73.4811 105.604 73.4261 105.515C73.3751 105.432 73.5951 105.445 73.9161 105.543C74.2371 105.642 74.5001 105.766 74.5001 105.82C74.5001 105.873 74.8001 105.937 75.1671 105.962C75.5331 105.987 76.0391 106.094 76.2911 106.199C76.5441 106.305 77.0871 106.409 77.5001 106.432C77.9121 106.455 78.2501 106.481 78.2501 106.49C78.2501 106.709 90.3231 106.824 92.5831 106.626C93.4081 106.554 94.3271 106.484 94.6251 106.47C94.9231 106.457 95.1671 106.395 95.1671 106.333C95.1671 106.271 95.3951 106.234 95.6731 106.25C95.9521 106.267 96.2191 106.217 96.2661 106.14C96.3141 106.063 96.5031 106 96.6871 106C97.1521 106 98.8331 105.21 98.8331 104.992C98.8331 104.894 98.8991 104.854 98.9781 104.903C99.1311 104.997 100.333 103.914 100.333 103.683C100.333 103.48 101.117 102.676 101.233 102.76C101.288 102.8 101.298 102.786 101.255 102.727C101.212 102.669 101.329 102.407 101.515 102.145C101.702 101.883 101.813 101.601 101.761 101.519C101.71 101.436 101.791 101.321 101.941 101.264C102.092 101.206 102.166 101.11 102.107 101.051C102.047 100.992 102.098 100.787 102.22 100.597C102.617 99.976 102.717 99.584 102.415 99.835C102.186 100.025 102.176 99.997 102.329 99.594C102.424 99.344 102.46 99.07 102.408 98.986C102.356 98.902 102.393 98.833 102.49 98.833C102.587 98.833 102.667 98.754 102.667 98.657C102.667 98.56 102.573 98.528 102.458 98.586C102.344 98.644 102.396 98.573 102.574 98.429C102.757 98.281 102.807 98.167 102.689 98.167C102.574 98.167 102.527 98.092 102.583 98C102.64 97.908 102.616 97.833 102.529 97.833C102.443 97.833 102.329 97.999 102.276 98.201C102.223 98.403 102.142 98.531 102.095 98.484C101.972 98.361 102.189 97.161 102.32 97.242C102.381 97.279 102.4 97.053 102.364 96.738C102.276 95.986 102.293 95.946 101.956 97.681ZM57.8331 97L56.7501 97.109L57.7821 97.138C58.3491 97.154 58.8601 97.092 58.9171 97C58.9731 96.908 58.9961 96.846 58.9681 96.862C58.9401 96.878 58.4291 96.94 57.8331 97ZM101.419 100.437C101.28 100.769 101.167 101.082 101.167 101.131C101.167 101.181 101.128 101.184 101.081 101.137C100.986 101.042 101.456 99.833 101.588 99.833C101.634 99.833 101.558 100.105 101.419 100.437ZM47.6671 104.036C47.8761 104.258 48.8331 104.659 48.8331 104.524C48.8331 104.44 48.7021 104.334 48.5421 104.288C48.3811 104.242 48.1001 104.147 47.9171 104.076C47.7331 104.005 47.6211 103.987 47.6671 104.036ZM57.3751 105.448C57.5351 105.49 57.7981 105.49 57.9581 105.448C58.1191 105.406 57.9871 105.372 57.6671 105.372C57.3461 105.372 57.2151 105.406 57.3751 105.448ZM88.3771 105.453C88.6311 105.491 89.0061 105.49 89.2111 105.451C89.4161 105.411 89.2081 105.38 88.7501 105.381C88.2921 105.382 88.1241 105.415 88.3771 105.453ZM90.2081 105.448C90.3691 105.49 90.6311 105.49 90.7921 105.448C90.9521 105.406 90.8211 105.372 90.5001 105.372C90.1791 105.372 90.0481 105.406 90.2081 105.448Z" fill="#EE7B42"/>
<path fill-rule="evenodd" clip-rule="evenodd" d="M71.2081 102.948C71.3691 102.99 71.6311 102.99 71.7921 102.948C71.9521 102.906 71.8211 102.872 71.5001 102.872C71.1791 102.872 71.0481 102.906 71.2081 102.948ZM74.1251 103.121C74.4231 103.158 74.9101 103.158 75.2081 103.121C75.5061 103.084 75.2621 103.053 74.6671 103.053C74.0711 103.053 73.8271 103.084 74.1251 103.121ZM76.0141 103.047C76.0521 103.073 76.2151 103.195 76.3751 103.318C76.6251 103.509 76.6671 103.502 76.6671 103.27C76.6671 103.104 76.5281 103 76.3061 103C76.1071 103 75.9761 103.021 76.0141 103.047ZM50.9171 105.167C51.1001 105.245 51.4001 105.308 51.5831 105.305C51.8511 105.301 51.8351 105.274 51.5001 105.167C50.9301 104.984 50.4921 104.984 50.9171 105.167ZM52.2921 105.451C52.4981 105.491 52.8351 105.491 53.0421 105.451C53.2481 105.411 53.0791 105.379 52.6671 105.379C52.2541 105.379 52.0851 105.411 52.2921 105.451ZM55.3751 105.624C56.0851 105.655 57.2481 105.655 57.9581 105.624C58.6691 105.593 58.0871 105.567 56.6671 105.567C55.2461 105.567 54.6651 105.593 55.3751 105.624ZM59.7921 105.618C59.9981 105.657 60.3351 105.657 60.5421 105.618C60.7481 105.578 60.5791 105.545 60.1671 105.545C59.7541 105.545 59.5851 105.578 59.7921 105.618ZM62.0491 105.624C62.6711 105.656 63.6461 105.656 64.2151 105.623C64.7841 105.591 64.2751 105.564 63.0831 105.565C61.8921 105.565 61.4261 105.592 62.0491 105.624ZM80.8751 105.619C81.1271 105.658 81.5401 105.658 81.7921 105.619C82.0441 105.581 81.8371 105.55 81.3331 105.55C80.8291 105.55 80.6231 105.581 80.8751 105.619ZM88.9631 105.622C89.3551 105.657 89.9551 105.657 90.2961 105.621C90.6371 105.585 90.3171 105.557 89.5831 105.557C88.8501 105.558 88.5711 105.587 88.9631 105.622Z" fill="#6E1F17"/>
<path fill-rule="evenodd" clip-rule="evenodd" d="M77.5752 78.375L76.9172 79.083L77.6252 78.425C78.2842 77.812 78.4102 77.667 78.2842 77.667C78.2572 77.667 77.9382 77.985 77.5752 78.375ZM62.5232 80.333C62.5232 80.471 62.5882 80.733 62.6672 80.917C62.7572 81.127 62.8102 81.158 62.8102 81C62.8102 80.862 62.7452 80.6 62.6672 80.417C62.5762 80.207 62.5232 80.176 62.5232 80.333ZM62.8452 81.417C62.8452 81.508 62.9522 81.771 63.0832 82C63.2142 82.229 63.3222 82.342 63.3222 82.25C63.3222 82.158 63.2142 81.896 63.0832 81.667C62.9522 81.438 62.8452 81.325 62.8452 81.417ZM88.4222 95.356C87.7782 96.328 86.6562 97.513 86.4812 97.405C86.2312 97.251 86.3172 97.043 86.6672 96.952C87.0232 96.858 86.9682 96.313 86.6092 96.38C86.4962 96.402 86.4352 96.244 86.4612 96C86.5012 95.623 86.4832 95.632 86.2722 96.097C86.1442 96.38 85.8452 96.764 85.6092 96.95C85.3722 97.137 85.2192 97.33 85.2682 97.379C85.3182 97.429 85.2222 97.515 85.0542 97.57C84.7532 97.67 83.8292 98.841 83.8382 99.11C83.8412 99.187 83.9182 99.122 84.0092 98.965C84.1012 98.809 84.2782 98.72 84.4042 98.768C84.5302 98.817 84.6822 98.776 84.7432 98.678C84.9592 98.328 85.3782 98.477 85.2762 98.868C85.1882 99.204 85.2132 99.197 85.5682 98.785C86.0082 98.272 86.2562 98.195 86.0922 98.621C86.0072 98.842 86.0732 98.823 86.3782 98.536C86.5962 98.331 86.8072 98.183 86.8462 98.207C86.8852 98.231 86.8992 98.219 86.8762 98.182C86.8542 98.145 86.9272 97.995 87.0382 97.849C87.1492 97.703 87.0362 97.765 86.7872 97.987C86.1202 98.581 86.0542 98.295 86.7072 97.643C87.6172 96.735 89.1812 94.667 88.9582 94.667C88.9142 94.667 88.6722 94.977 88.4222 95.356ZM87.7922 97.118C87.9982 97.157 88.3352 97.157 88.5422 97.118C88.7482 97.078 88.5792 97.045 88.1672 97.045C87.7542 97.045 87.5852 97.078 87.7922 97.118ZM86.0832 98C85.5532 98.554 85.3332 98.627 85.3332 98.25C85.3332 98.112 85.4752 98 85.6492 98C85.8222 98 86.0082 97.888 86.0602 97.75C86.1132 97.612 86.2482 97.5 86.3592 97.5C86.4712 97.5 86.3472 97.725 86.0832 98ZM62.5002 99.583C62.8112 99.813 63.1062 100 63.1572 99.999C63.3152 99.998 62.2602 99.179 62.0932 99.173C62.0062 99.169 62.1892 99.354 62.5002 99.583ZM83.4282 100.25C82.9542 100.871 82.6132 100.954 81.7622 100.652C81.0532 100.4 80.3332 100.683 80.3332 101.214C80.3332 101.846 79.9732 102.162 78.9482 102.43C76.8412 102.98 72.7952 103.342 72.5832 103C72.5292 102.913 72.1522 102.887 71.7432 102.944C71.2922 103.005 71.0002 102.98 71.0002 102.879C71.0002 102.788 70.8132 102.749 70.5832 102.793C70.3272 102.842 70.1672 102.796 70.1672 102.673C70.1672 102.536 70.0032 102.51 69.6462 102.588C69.2462 102.676 69.1562 102.653 69.2562 102.489C69.3502 102.337 69.3092 102.309 69.1112 102.388C68.2132 102.75 68.2352 102.748 68.4822 102.444C68.6852 102.195 68.6792 102.172 68.4402 102.264C68.2882 102.322 68.1672 102.287 68.1672 102.184C68.1672 102.083 68.0922 102 68.0002 102C67.9082 102 67.8332 102.125 67.8332 102.278C67.8332 102.431 67.8822 102.507 67.9422 102.447C68.0022 102.387 68.1342 102.453 68.2372 102.593C68.3392 102.734 68.5902 102.861 68.7952 102.876C69.2732 102.912 69.2642 103.137 68.7562 103.826C68.5292 104.132 68.3812 104.442 68.4252 104.513C68.4692 104.585 68.4182 104.698 68.3102 104.764C68.1882 104.84 68.1602 104.813 68.2342 104.692C68.3822 104.453 68.2432 104.447 67.8182 104.675C67.6382 104.771 67.5302 104.914 67.5792 104.993C67.6272 105.071 67.5252 105.099 67.3522 105.053C67.1792 105.008 66.9792 105.065 66.9082 105.18C66.8142 105.332 66.8672 105.359 67.0982 105.278C67.4102 105.168 67.4102 105.171 67.1002 105.411C66.7772 105.661 66.4182 105.6 66.5892 105.324C66.6412 105.239 66.5642 105.216 66.4182 105.273C66.1882 105.361 66.1992 105.408 66.4942 105.615C66.8302 105.85 67.5002 105.779 67.5002 105.508C67.5002 105.433 67.6502 105.333 67.8332 105.285C68.0172 105.237 68.1672 105.265 68.1672 105.346C68.1672 105.428 68.4282 105.37 68.7482 105.217C69.0682 105.065 69.2932 104.904 69.2492 104.86C68.9942 104.605 71.8262 103.539 72.1782 103.757C72.2352 103.793 72.9872 103.871 73.8492 103.931C74.7112 103.992 75.5292 104.136 75.6672 104.251C75.9382 104.478 76.4502 104.66 77.0422 104.74C77.2482 104.768 77.7542 104.944 78.1672 105.132C78.5792 105.32 79.2172 105.518 79.5832 105.572C80.0482 105.64 79.9292 105.574 79.1892 105.353C78.5532 105.163 77.9512 104.854 77.6892 104.582L77.2502 104.127L77.6672 104.38C78.0692 104.625 78.8352 104.648 79.9172 104.449C80.1922 104.399 80.9962 104.342 81.7052 104.323C82.4132 104.305 82.9522 104.224 82.9032 104.145C82.8102 103.995 83.0382 103.94 83.5422 103.991C83.7082 104.008 83.8332 103.909 83.8332 103.76C83.8332 103.617 83.7772 103.509 83.7082 103.52C83.3892 103.57 83.1562 103.486 83.2392 103.351C83.3572 103.16 82.8602 102.964 82.6262 103.109C82.5282 103.169 82.4952 103.143 82.5522 103.05C82.6092 102.958 82.4862 102.805 82.2782 102.71C81.0862 102.166 82.2842 100.948 83.5782 101.389C83.9792 101.526 84.3502 101.594 84.4032 101.541C84.6072 101.337 84.4882 100.179 84.2382 99.929C83.9002 99.591 83.9442 99.573 83.4282 100.25ZM64.1672 100.595C64.1672 100.631 64.5422 100.851 65.0002 101.083C65.4582 101.316 65.8332 101.444 65.8332 101.369C65.8332 101.294 65.4582 101.074 65.0002 100.881C64.5422 100.687 64.1672 100.558 64.1672 100.595ZM76.6672 103.27C76.6672 103.502 76.6252 103.509 76.3752 103.318C76.2152 103.195 76.0522 103.073 76.0142 103.047C75.9762 103.021 76.1072 103 76.3062 103C76.5282 103 76.6672 103.104 76.6672 103.27ZM49.2502 104.756C49.5252 104.882 49.8622 104.983 50.0002 104.98C50.1372 104.977 49.9872 104.874 49.6672 104.75C48.9062 104.457 48.6062 104.461 49.2502 104.756ZM96.2502 104.756C95.5902 104.985 95.5892 104.986 96.1672 104.891C96.4872 104.838 96.8622 104.731 97.0002 104.653C97.3672 104.443 97.0122 104.492 96.2502 104.756ZM93.2502 105.333C92.9552 105.46 92.9692 105.478 93.3752 105.488C93.6272 105.495 93.8332 105.425 93.8332 105.333C93.8332 105.138 93.7052 105.138 93.2502 105.333ZM52.9172 105.512C52.5702 105.592 52.5192 105.637 52.7502 105.66C52.9332 105.678 53.2262 105.719 53.4002 105.752C54.0642 105.876 55.1612 105.895 55.2722 105.783C55.3362 105.719 55.1702 105.667 54.9022 105.667C54.6342 105.667 54.1902 105.606 53.9162 105.532C53.6412 105.458 53.1922 105.449 52.9172 105.512ZM65.4602 105.472C65.2362 105.56 65.3112 105.63 65.7942 105.781C66.3042 105.94 66.3642 105.937 66.1282 105.763C65.9692 105.646 65.8872 105.502 65.9472 105.442C66.0832 105.306 65.8412 105.321 65.4602 105.472ZM82.7992 105.507C81.9612 105.603 81.7022 105.732 81.9892 105.91C82.0872 105.97 82.1672 105.931 82.1672 105.823C82.1672 105.676 82.2302 105.679 82.4172 105.833C82.5542 105.947 82.6672 105.975 82.6672 105.895C82.6682 105.722 84.4752 105.623 84.8332 105.777C85.1792 105.925 85.5522 105.942 85.7502 105.817C85.8422 105.759 86.1982 105.714 86.5422 105.717C86.8852 105.72 87.2122 105.677 87.2672 105.621C87.4032 105.486 83.7862 105.393 82.7992 105.507ZM91.4172 105.504C90.8092 105.617 90.8342 105.626 91.7082 105.606C92.2352 105.594 92.6672 105.527 92.6672 105.459C92.6672 105.316 92.3722 105.327 91.4172 105.504ZM58.8752 105.618C58.1542 105.756 58.5072 105.962 59.3582 105.901C60.2082 105.84 60.7122 105.667 60.0412 105.667C59.8502 105.667 59.5942 105.64 59.4722 105.607C59.3502 105.574 59.0812 105.579 58.8752 105.618ZM60.6172 105.701C60.4972 105.777 60.6162 105.836 60.9172 105.848C61.1922 105.86 61.6602 105.882 61.9572 105.899C62.2542 105.916 62.4412 105.878 62.3732 105.815C62.1872 105.643 60.8472 105.555 60.6172 105.701ZM55.7422 105.846C55.6772 105.952 56.0642 106.002 56.8052 105.983C58.4152 105.943 58.6552 105.712 57.1062 105.694C56.4132 105.686 55.7992 105.755 55.7422 105.846ZM63.1252 105.954C63.4232 105.991 63.9102 105.991 64.2082 105.954C64.5062 105.917 64.2622 105.887 63.6672 105.887C63.0712 105.887 62.8272 105.917 63.1252 105.954Z" fill="#8E4B25"/>
</svg>
